<svg width="122" height="130" viewBox="0 0 122 130" fill="none" xmlns="http://www.w3.org/2000/svg">
<rect x="0.5" y="0.5" width="120.952" height="129" rx="4.5" fill="#50B848" fill-opacity="0.1" stroke="#50B848" stroke-dasharray="8 5"/>
<path d="M14.1797 67.691V66.5335H16.5112V64.2019H17.6687V66.5335H20.0168V67.691H17.6687V70.0226H16.5112V67.691H14.1797ZM29.4461 60.0349H30.8682L35.5313 71.7754H33.9934L32.9351 69.0635H27.3791L26.3208 71.7754H24.7829L29.4461 60.0349ZM27.8917 67.7406H32.4225L30.1571 61.8704L27.8917 67.7406ZM44.5545 71.7754H43.1654V70.1549H43.1158C42.7024 71.0643 41.4953 71.9407 39.8913 71.9407C37.8078 71.9407 35.6747 70.4194 35.6747 67.4761C35.6747 64.5327 37.8078 63.0114 39.8913 63.0114C41.4953 63.0114 42.7024 63.8878 43.1158 64.7972H43.1654V60.0349H44.5545V71.7754ZM37.0637 67.4761C37.0637 69.6092 38.6015 70.6675 40.1228 70.6675C41.6772 70.6675 43.2151 69.5926 43.2151 67.4761C43.2151 65.3595 41.6772 64.2846 40.1228 64.2846C38.6015 64.2846 37.0637 65.3429 37.0637 67.4761ZM55.0528 71.7754H53.6638V70.1549H53.6142C53.2008 71.0643 51.9937 71.9407 50.3897 71.9407C48.3062 71.9407 46.173 70.4194 46.173 67.4761C46.173 64.5327 48.3062 63.0114 50.3897 63.0114C51.9937 63.0114 53.2008 63.8878 53.6142 64.7972H53.6638V60.0349H55.0528V71.7754ZM47.5621 67.4761C47.5621 69.6092 49.0999 70.6675 50.6212 70.6675C52.1756 70.6675 53.7134 69.5926 53.7134 67.4761C53.7134 65.3595 52.1756 64.2846 50.6212 64.2846C49.0999 64.2846 47.5621 65.3429 47.5621 67.4761ZM60.704 71.7754V60.0349H62.2914L66.8388 69.9399L71.4027 60.0349H72.9902V71.7754H71.5681V62.8625H71.4854L67.3845 71.7754H66.3097L62.2088 62.8625H62.1261V71.7754H60.704ZM79.0312 71.9407C76.7162 71.9407 74.6161 70.3368 74.6161 67.4761C74.6161 64.5823 76.7327 63.0114 78.8989 63.0114C81.0817 63.0114 83.3636 64.5823 83.0164 67.9887H75.939C76.154 69.7911 77.5264 70.7502 79.18 70.7502C80.1887 70.7502 81.1147 70.3864 81.7431 69.7084L82.4376 70.4194C81.6604 71.3785 80.4202 71.9407 79.0312 71.9407ZM75.939 66.9304H81.7927C81.6935 65.161 80.3541 64.2185 78.9155 64.2185C77.4934 64.2185 76.154 65.128 75.939 66.9304ZM93.1546 71.7754H91.7655V70.1549H91.7159C91.3025 71.0643 90.0954 71.9407 88.4914 71.9407C86.4079 71.9407 84.2748 70.4194 84.2748 67.4761C84.2748 64.5327 86.4079 63.0114 88.4914 63.0114C90.0954 63.0114 91.3025 63.8878 91.7159 64.7972H91.7655V60.0349H93.1546V71.7754ZM85.6638 67.4761C85.6638 69.6092 87.2016 70.6675 88.7229 70.6675C90.2773 70.6675 91.8151 69.5926 91.8151 67.4761C91.8151 65.3595 90.2773 64.2846 88.7229 64.2846C87.2016 64.2846 85.6638 65.3429 85.6638 67.4761ZM95.1865 71.7754V63.1767H96.5756V71.7754H95.1865ZM95.1865 61.3247V60.0349H96.5756V61.3247H95.1865ZM102.415 71.9407C100.332 71.9407 98.1985 70.4194 98.1985 67.4761C98.1985 64.5327 100.332 63.0114 102.415 63.0114C104.019 63.0114 105.226 63.8878 105.64 64.7972H105.689V63.1767H107.078V71.7754H105.689V70.1549H105.64C105.226 71.0643 104.019 71.9407 102.415 71.9407ZM99.5876 67.4761C99.5876 69.6092 101.125 70.6675 102.647 70.6675C104.201 70.6675 105.739 69.5926 105.739 67.4761C105.739 65.3595 104.201 64.2846 102.647 64.2846C101.125 64.2846 99.5876 65.3429 99.5876 67.4761Z" fill="#50B848"/>
</svg>
