<svg width="60" height="60" viewBox="0 0 60 60" fill="none" xmlns="http://www.w3.org/2000/svg">
<rect width="60" height="60" rx="30" fill="white"/>
<rect x="1" y="1" width="58" height="58" rx="29" stroke="black" stroke-opacity="0.2" stroke-width="2"/>
<path d="M30 42.5001C28.0614 42.5471 26.1832 41.8235 24.7772 40.4878C23.3713 39.1522 22.5524 37.3136 22.5 35.3751V22.6626C22.536 21.2612 23.1258 19.9312 24.1402 18.9636C25.1546 17.9961 26.511 17.4698 27.9125 17.5001C29.3161 17.4665 30.6758 17.9912 31.6929 18.9591C32.71 19.927 33.3015 21.259 33.3375 22.6626V35.3876C33.2855 36.2358 32.9119 37.0322 32.2929 37.6145C31.6739 38.1967 30.8561 38.5209 30.0063 38.5209C29.1564 38.5209 28.3386 38.1967 27.7196 37.6145C27.1006 37.0322 26.727 36.2358 26.675 35.3876V23.6501C26.675 23.3185 26.8067 23.0006 27.0411 22.7662C27.2755 22.5317 27.5935 22.4001 27.925 22.4001C28.2565 22.4001 28.5745 22.5317 28.8089 22.7662C29.0433 23.0006 29.175 23.3185 29.175 23.6501V35.3876C29.1999 35.5905 29.2982 35.7772 29.4513 35.9127C29.6044 36.0482 29.8018 36.1229 30.0063 36.1229C30.2107 36.1229 30.4081 36.0482 30.5612 35.9127C30.7143 35.7772 30.8126 35.5905 30.8375 35.3876V22.6626C30.7986 21.9231 30.4697 21.2287 29.9221 20.7303C29.3745 20.2318 28.6524 19.9694 27.9125 20.0001C27.1747 19.9728 26.4558 20.2367 25.9109 20.7348C25.3661 21.2329 25.0389 21.9253 25 22.6626V35.3751C25.052 36.6506 25.6075 37.8535 26.5446 38.7204C27.4818 39.5873 28.7243 40.0474 30 40.0001C31.2757 40.0474 32.5182 39.5873 33.4554 38.7204C34.3925 37.8535 34.948 36.6506 35 35.3751V22.6626C35 22.331 35.1317 22.0131 35.3661 21.7787C35.6005 21.5442 35.9185 21.4126 36.25 21.4126C36.5815 21.4126 36.8995 21.5442 37.1339 21.7787C37.3683 22.0131 37.5 22.331 37.5 22.6626V35.3751C37.4476 37.3136 36.6287 39.1522 35.2228 40.4878C33.8168 41.8235 31.9386 42.5471 30 42.5001Z" fill="black"/>
</svg>
