<svg width="62" height="63" viewBox="0 0 62 63" fill="none" xmlns="http://www.w3.org/2000/svg">
<g clip-path="url(#clip0_2816_7665)">
<path fill-rule="evenodd" clip-rule="evenodd" d="M30.3021 48.3928C30.322 48.1824 30.4586 47.9877 30.5646 47.9049C30.7449 47.7637 30.8269 47.7179 31.107 47.6793L30.9902 47.7534C30.7549 47.9 30.5045 48.0918 30.3556 48.3307C30.3367 48.361 30.3306 48.3751 30.3021 48.3929V48.3928ZM36.0793 38.7102L36.0825 38.699C36.594 38.7253 37.3215 39.0368 37.8004 39.2581C37.8683 39.2895 37.9622 39.3453 38.027 39.3671C37.9692 39.2323 37.6393 38.9737 37.5035 38.8802C37.211 38.6791 36.9139 38.5917 36.8376 38.5428C37.3453 38.5664 37.899 38.7166 38.3525 38.919C38.4331 38.955 38.73 39.1012 38.766 39.1503L38.6109 39.2932C38.261 39.6323 37.6768 39.8857 37.2046 40.0068C36.8685 40.093 36.7855 39.9215 36.6328 39.7376C36.5137 39.594 36.3266 39.4044 36.1842 39.2863C36.0617 39.1847 35.8149 39.1152 35.7928 39.0859C35.8104 39.0945 35.9563 39.1032 35.9987 39.1102C36.3732 39.1719 36.7082 39.3636 37.0124 39.5702C37.0603 39.6028 37.1114 39.6445 37.1567 39.6682C37.13 39.5486 36.7889 39.2035 36.6912 39.1118C36.6004 39.0266 36.5174 38.9646 36.4079 38.8898C36.3457 38.8475 36.148 38.7272 36.0793 38.7102ZM28.3189 35.9297L28.3319 35.941C28.2676 35.9906 28.2099 36.0409 28.1465 36.0947C28.0824 36.149 28.0301 36.2094 27.9694 36.2592C27.873 36.3381 27.6972 36.5961 27.6539 36.6151C27.5776 36.6486 27.1074 36.6249 27.0103 36.614C26.4952 36.5559 25.972 36.3398 25.8044 35.8033C25.736 35.5845 25.721 35.0107 25.5729 34.835C25.5353 34.7902 25.5201 34.7977 25.473 34.7678L25.3765 34.7705L25.3544 34.7832C25.2103 34.8655 25.1913 35.0684 25.1461 35.2616C25.0987 35.4637 25.058 35.665 25.046 35.884C24.9865 36.9618 25.8214 37.5515 26.7606 37.8035C26.89 37.8383 27.2291 37.9407 27.3443 37.9461C27.3364 37.638 27.3904 37.3185 27.5042 37.0767C27.6348 36.7995 27.7259 36.6592 28.0299 36.5483C28.2908 36.4532 28.5511 36.3538 28.8124 36.2612C29.0641 36.172 29.3475 36.0419 29.596 35.9766C29.5728 36.0171 29.5422 36.0507 29.5141 36.0893C29.3617 36.2982 29.277 36.4962 29.12 36.6723C29.0833 36.7135 29.0604 36.7304 29.0167 36.7658C28.9951 36.7833 28.9069 36.834 28.9005 36.8473C29.0697 36.8061 29.273 36.727 29.4491 36.6715C29.9276 36.521 30.3515 36.4394 30.7834 36.1725C30.8544 36.1286 30.9351 36.0611 31.0032 36.0289C30.9789 36.0915 30.7625 36.3224 30.7215 36.3651C30.2177 36.8895 29.6357 37.034 29.5529 37.0943C29.7146 37.0995 29.989 37.0578 30.1497 37.0315C30.5702 36.9627 30.9918 36.8368 31.3437 36.6011C31.3983 36.5645 31.4869 36.4918 31.5355 36.4689C31.5509 36.6152 31.5632 36.8508 31.5444 36.9947C31.5247 37.1456 31.4699 37.2883 31.4449 37.4361C31.5149 37.401 31.6423 37.2713 31.6905 37.2203C31.8161 37.0875 31.9704 36.8429 32.0383 36.6637L32.1508 36.3295C32.2507 36.4402 32.3107 36.6432 32.6409 36.7882C32.7504 36.8363 32.8848 36.8684 33.0156 36.8788C33.1043 36.8859 33.4616 36.8623 33.4935 36.8763C33.5549 36.9033 33.6165 37.1378 33.6403 37.2107C33.7979 37.6956 33.8591 37.829 33.9247 38.3889C33.741 38.4055 33.6865 38.3771 33.5227 38.4687C33.3029 38.5917 33.0287 39.0671 32.9197 39.2973C32.5412 40.0969 32.4148 41.1915 32.4315 42.1002C32.4345 42.263 32.4283 42.4185 32.4469 42.5815C32.4793 42.8676 32.6179 43.0657 32.7522 43.247C32.8369 43.3614 33.1031 43.7138 33.1561 43.8088C33.1539 43.8083 32.8901 43.6833 32.7866 43.6469C32.6493 43.5984 32.5154 43.5627 32.3659 43.5391C31.8225 43.4532 30.8802 43.483 30.3379 43.5777C30.1987 43.602 30.0359 43.6459 29.9055 43.6902C29.7818 43.7324 29.5579 43.8373 29.5193 43.8491C29.5699 43.6639 29.6973 43.5306 29.7578 43.1676C29.8086 42.8629 29.7592 42.6046 29.7322 42.3002C29.6809 41.7234 29.635 41.1785 29.4908 40.6405C29.331 40.0446 29.0412 39.36 28.652 38.9001C28.6268 38.8704 28.5588 38.7969 28.535 38.7787C28.3856 38.6638 28.2879 38.5835 28.0721 38.5565C27.9923 38.5465 27.9321 38.5588 27.8619 38.5548C27.9059 38.0778 27.9456 37.8207 28.065 37.3752C28.0961 37.2594 28.1504 37.1164 28.1678 37.005C28.1008 37.0445 27.9425 37.3293 27.8999 37.4204C27.8239 37.5823 27.7605 37.732 27.7042 37.9093C27.6109 38.2032 27.4887 38.9261 27.4179 39.3094C27.4022 39.3941 27.3608 39.5043 27.3544 39.5788C27.3274 39.8899 27.6389 39.6952 27.8202 39.7268C28.1332 39.7813 28.4568 40.2118 28.4416 40.4863C28.4097 40.4487 28.3439 40.294 28.3054 40.2349C28.2393 40.1334 28.2005 40.103 28.1263 40.0305C28.0036 39.9105 27.7639 39.8283 27.5653 39.9407C27.3377 40.0696 27.1393 40.4267 27.0089 40.5315C26.8971 40.6213 26.8554 40.598 26.7074 40.5985C26.8782 40.8453 27.2212 40.5901 27.3021 40.5705C27.317 40.8551 27.4352 41.0969 27.3708 41.286C27.3418 41.3715 27.2827 41.4749 27.2451 41.5596C26.6384 42.9265 26.3866 44.5513 26.7599 46.0302C26.9755 46.8844 27.4106 47.6756 27.8499 48.2613C27.9714 48.4233 28.0905 48.5721 28.2138 48.7169C28.4117 48.9493 28.7884 49.348 29.0216 49.5548C29.1336 49.6542 29.2367 49.7657 29.3619 49.8335C29.4199 49.8649 29.454 49.8656 29.5082 49.8873L29.6527 49.8833C29.6551 49.8818 29.6588 49.8767 29.6602 49.8789L29.812 49.7984C29.8607 49.7645 29.8996 49.724 29.9368 49.6849C30.0956 49.5185 30.5059 49.0598 30.6596 48.9495C31.0697 48.6549 31.5989 48.8275 32.113 48.4319C32.524 48.1156 32.5101 47.8419 32.6348 47.5062C32.679 47.3869 32.7244 47.2801 32.7885 47.1793C32.8399 47.0984 32.93 46.9665 33.0016 46.9078C33.0917 46.8337 33.1414 46.7293 33.2313 46.6524C33.4286 46.4833 33.9161 46.4351 34.0626 46.0187C34.1719 45.7078 33.9853 45.4785 33.8875 45.281C33.8331 45.1711 33.7775 45.0669 33.723 44.9547C33.6307 44.7647 33.6796 44.7581 33.7722 44.6184C33.8384 44.5187 33.9047 44.4293 33.9701 44.333C34.3937 43.7111 34.3698 43.593 34.2935 42.7973C34.2627 42.4749 34.2058 42.2284 34.2446 41.8967C34.2611 41.7557 34.2903 41.635 34.3323 41.5073C34.372 41.3867 34.4283 41.2855 34.4737 41.1682C34.5584 40.9491 34.6363 40.614 34.6323 40.3718C34.7197 40.3915 34.8018 40.4443 34.9075 40.4652C35.0038 40.4843 35.1381 40.462 35.1889 40.3707C34.9375 40.3608 34.9422 40.3807 34.7192 40.1128C34.6082 39.9795 34.4972 39.8457 34.329 39.7587C34.0216 39.5994 33.7694 39.8027 33.6135 40.0434C33.5644 40.1194 33.5138 40.1982 33.4707 40.271C33.4471 40.202 33.5376 40.0247 33.5688 39.9606C33.6627 39.7676 33.8136 39.5944 34.0364 39.5485C34.1731 39.5203 34.3561 39.5943 34.4366 39.5534C34.6006 39.4698 34.3786 39.0675 34.3303 38.8858C34.1921 38.3653 34.2385 38.0728 33.9475 37.481C33.862 37.307 33.7226 37.0572 33.6082 36.9352C33.4466 36.7629 33.3179 36.8289 33.0383 36.6332C32.8968 36.5342 32.716 36.3516 32.624 36.1691C32.6827 36.172 33.1824 36.2902 33.3084 36.3147C33.6006 36.3715 33.699 36.3405 33.9406 36.5305C34.0629 36.6266 34.2126 36.8547 34.2821 37.0528C34.3554 37.2615 34.3944 37.528 34.4531 37.7519L35.0016 37.5631C35.4522 37.3936 35.7051 37.3047 36.0592 36.9731L36.2386 36.7807C36.6569 36.2622 36.705 35.593 36.4643 34.9367C36.4339 34.854 36.348 34.6085 36.3008 34.5448C36.2581 34.4871 36.2536 34.5033 36.196 34.4658L36.0835 34.469C36.041 34.5085 36.0172 34.5072 35.9862 34.5611C35.9469 34.6298 35.9001 34.8992 35.8883 34.9802C35.8559 35.2016 35.8782 35.389 35.8097 35.601C35.6283 36.1625 35.0289 36.3709 34.48 36.426C33.9775 36.4766 34.0587 36.4645 33.8146 36.2271C33.7791 36.1927 33.754 36.1801 33.7191 36.1473C33.5463 35.9855 33.309 35.8329 33.0734 35.7445C32.8632 35.6655 32.7144 35.6539 32.4718 35.6464C32.1035 35.6353 31.8075 35.3902 31.4937 35.2122C30.9933 34.9282 30.4094 34.7459 29.7982 34.8184C29.4933 34.8545 28.9573 35.0113 28.7356 35.1933L29.0167 35.1587C29.3459 35.1115 29.4344 35.1548 29.7327 35.223C29.8618 35.2525 29.8297 35.2358 29.8309 35.2763C29.799 35.2881 29.578 35.2721 29.5134 35.2741C29.1992 35.2839 28.9205 35.311 28.6322 35.4372C28.4512 35.5164 28.3383 35.598 28.2096 35.7024C28.1458 35.7542 27.9277 35.9737 27.9365 36.1013L28.3186 35.9302L28.3189 35.9297ZM31.2452 43.122C31.1053 43.1259 30.7956 43.1984 30.7421 43.2843L31.849 43.2536L31.8967 43.2492C31.812 43.1664 31.532 43.1139 31.3796 43.1181L31.2452 43.122ZM30.5875 42.9498C30.6463 42.9356 30.705 42.9067 30.7675 42.8863C30.953 42.8256 31.1691 42.7789 31.3698 42.7731C31.718 42.7632 31.826 42.8114 32.1381 42.8759C32.0767 42.8096 31.8947 42.7271 31.7855 42.6927C31.4928 42.6004 31.1853 42.608 30.9074 42.7372C30.8079 42.7834 30.6333 42.883 30.5874 42.9499L30.5875 42.9498ZM31.2254 41.4317C31.162 40.3638 31.1726 39.6801 31.4048 38.5796C31.4247 38.4856 31.4569 38.3771 31.4695 38.2892C31.3784 38.398 31.2609 38.777 31.2158 38.9549C31.0375 39.66 30.9805 40.6287 31.1859 41.3469C31.2075 41.4223 31.2005 41.4186 31.2253 41.4317H31.2254ZM29.2426 37.8531L29.2794 37.8745C29.2878 37.8776 29.3103 37.8826 29.3207 37.8852C29.3506 37.8928 29.3715 37.8987 29.3993 37.9063C29.4577 37.9218 29.5012 37.9361 29.5549 37.9552C30.0899 38.1467 30.2918 38.5752 30.519 39.0946C30.5634 39.196 30.6098 39.2881 30.6488 39.3946C30.6743 39.4643 30.7304 39.6714 30.7561 39.7136C30.7812 39.6487 30.6565 39.1024 30.6289 39.0007C30.5194 38.6002 30.3107 38.1598 29.9417 37.9606C29.6966 37.828 29.5491 37.8216 29.2426 37.853V37.8531ZM29.9075 44.5992C29.9112 44.5982 29.9149 44.5962 29.9286 44.5972C29.9341 44.5975 29.9448 44.5999 29.9505 44.6017L30.0674 44.6598C30.1177 44.6881 30.1654 44.7112 30.2145 44.7384C30.3164 44.7947 30.4144 44.8459 30.5142 44.9004C30.7456 45.0267 30.8912 45.215 30.8146 45.4952C30.6899 45.9511 30.1128 45.92 30.023 46.1058C29.9561 46.2443 30.0551 46.3514 30.1983 46.3472L32.4207 46.2846C32.5474 46.2812 32.5511 46.293 32.6355 46.2301C32.6874 46.1915 32.7149 46.1458 32.6837 46.0639C32.5979 45.8396 31.9957 45.9096 31.8513 45.4756C31.8088 45.3481 31.81 45.2039 31.8638 45.0885C31.9158 44.9771 32.007 44.9312 32.111 44.8597C32.1791 44.8128 32.6601 44.5133 32.7089 44.5144C32.7073 44.5629 32.5523 44.6761 32.515 44.708C32.4448 44.7678 32.379 44.8217 32.3063 44.8828C32.1484 45.0152 31.9657 45.1281 31.9701 45.3193C31.9807 45.7692 32.7618 45.7358 32.8545 45.2916C32.8987 45.0797 32.9285 44.8528 32.9619 44.6382C33.0031 44.3733 32.8926 44.2031 32.6216 44.2299C32.5592 44.2362 32.1553 44.4055 32.0536 44.4427C31.7088 44.5683 31.565 44.5903 31.2251 44.5997C30.6454 44.6161 30.1651 44.2984 29.9237 44.3057L29.9134 44.306C29.4972 44.3187 29.6912 44.8643 29.7433 45.1089C29.7766 45.2653 29.8083 45.4286 29.8923 45.5367C30.0605 45.7528 30.5472 45.7952 30.6665 45.4652C30.7635 45.1969 30.517 45.0868 30.3571 44.9707L30.0448 44.7259C29.9981 44.6874 29.9046 44.6296 29.9078 44.599L29.9075 44.5992ZM35.3117 39.479C35.521 39.4331 35.7485 39.3357 36.0002 39.524C36.1475 39.6342 36.2713 39.8383 36.314 40.0932C36.3119 40.091 36.3092 40.0846 36.3084 40.0865L36.2937 40.0655C36.1989 39.9097 36.161 39.7855 35.9458 39.6445C35.6612 39.4579 35.3952 39.514 35.3117 39.479ZM37.3028 38.2417C37.5091 38.2258 38.0128 38.342 38.2035 38.4068C38.4911 38.5045 38.8022 38.6145 38.8098 38.9215L38.8115 39.0013C38.7388 38.9509 38.6713 38.8628 38.5038 38.7486C38.2101 38.5482 37.8745 38.4016 37.5236 38.3059C37.4559 38.2874 37.362 38.2732 37.3029 38.2417H37.3028ZM39.6643 38.6563L39.6569 38.3933C39.6328 38.3542 39.6191 38.2686 39.5992 38.2175C39.5779 38.1632 39.5476 38.1062 39.5167 38.0606C39.3278 37.7811 39.0256 37.6033 38.6862 37.4813C38.1755 37.2976 37.6289 37.253 37.0411 37.3387C36.5095 37.4163 36.0518 37.6309 35.6774 37.8897C35.4163 38.0702 35.3582 38.1958 35.0598 38.2238C34.6603 38.2614 34.5257 38.0355 34.4099 37.954C34.3381 38.0805 34.3369 38.3412 34.3732 38.4876C34.4165 38.6621 34.5081 38.7832 34.5609 38.9492C34.6509 39.2315 34.6832 39.9189 34.7406 40.0681C34.8002 40.2228 35.0627 40.0699 35.6233 40.4433C36.5321 41.0484 37.7903 40.6128 38.545 40.0866C38.8459 39.8766 39.0911 39.6632 39.2884 39.401C39.3154 39.3651 39.3337 39.3423 39.3591 39.307C39.4836 39.1356 39.6058 38.9377 39.6466 38.7221L39.664 38.6563H39.6643ZM25.6107 40.3495C25.6161 40.2623 25.6653 40.0998 25.6987 40.0279C25.7898 39.8326 25.9584 39.6914 26.1821 39.6767C26.2901 39.6696 26.4729 39.6839 26.5489 39.7334C26.1526 39.755 25.8597 39.8778 25.6756 40.2179C25.6547 40.2567 25.636 40.3144 25.6105 40.3495H25.6107ZM23.8453 39.7595L24.2636 39.5272C24.4024 39.4533 24.5549 39.3777 24.7067 39.3124C24.9922 39.19 25.3826 39.0364 25.7106 38.9884L25.4049 39.1976C25.3192 39.2657 25.2049 39.3597 25.1366 39.4368C25.0062 39.5839 24.7675 39.854 24.7101 40.0357C24.7626 40.01 25.1116 39.7305 25.2728 39.636C25.455 39.5292 25.734 39.3897 25.9888 39.3887C25.8691 39.4584 25.8163 39.4469 25.6507 39.5807C25.1483 39.9863 25.1889 40.366 24.826 40.3761C24.7039 40.3795 24.4378 40.3076 24.3128 40.2742C23.9482 40.1771 23.5509 39.992 23.2574 39.7629C23.1912 39.7114 23.1508 39.6767 23.0656 39.6359C23.1229 39.4774 23.7161 39.2156 23.9017 39.1447C24.0689 39.081 24.231 39.0314 24.4097 38.9799C24.5289 38.9455 24.8361 38.865 24.9576 38.8605C24.6639 39.0523 24.3047 39.2099 24.0613 39.467C24.0171 39.5137 23.8684 39.6849 23.8452 39.7595H23.8453ZM23.0197 39.4396C22.9105 39.1377 23.3122 38.9308 23.5403 38.8336C23.777 38.7328 24.2192 38.5909 24.4987 38.602C24.4628 38.6256 24.1365 38.7228 24.0609 38.7523C23.2832 39.0547 23.1185 39.383 23.0197 39.4396ZM22.1154 38.8878L22.1222 39.1259C22.1704 39.2493 22.1301 39.3064 22.3099 39.5837C22.4457 39.7933 22.5503 39.8742 22.6772 40.0148C22.7089 40.05 22.7222 40.0669 22.758 40.0995L22.9316 40.2459C23.334 40.556 23.6776 40.7465 24.1998 40.9052C24.4965 40.9955 24.9563 41.1016 25.2965 41.0662C26.1514 40.9771 26.3798 40.516 26.8809 40.3812C27.2144 40.2914 27.1695 40.4359 27.2041 39.743C27.2134 39.5576 27.2174 39.3263 27.2537 39.1533C27.2881 38.9887 27.374 38.8507 27.4192 38.6855C27.4611 38.5323 27.4599 38.2774 27.3603 38.1554C27.2937 38.2035 27.2635 38.2766 27.1053 38.3699C26.6526 38.6368 26.3737 38.3012 26.0947 38.1455C25.6687 37.9076 25.2582 37.735 24.6953 37.6795C24.1429 37.6252 23.5054 37.7144 23.0472 37.9149C22.7833 38.0303 22.4972 38.1963 22.3373 38.4009C22.2635 38.4954 22.206 38.5802 22.1655 38.7012C22.147 38.7571 22.1372 38.8461 22.1152 38.8876L22.1154 38.8878ZM29.5814 46.7344L33.1269 46.6328C33.0871 46.7023 32.6876 47.0509 32.6046 47.1059C32.3264 47.2901 32.1462 47.2693 31.7867 47.2795L30.9288 47.3038C30.555 47.3144 30.2736 47.3416 29.98 47.0725L29.5815 46.7345L29.5814 46.7344ZM28.7122 45.9902C28.6751 45.8208 28.7599 45.7174 28.8219 45.6143C29.0329 45.2624 29.1053 44.9042 29.2095 44.5024C29.2779 44.239 29.4702 44.1088 29.7162 43.9952C30.4138 43.673 31.6943 43.6561 32.4145 43.7737C32.6935 43.8193 32.9478 43.9133 33.1423 44.0469C33.3847 44.2132 33.3985 44.3866 33.4977 44.7144C33.5811 44.9896 33.6764 45.2012 33.8178 45.407C33.9905 45.6587 34.0518 45.918 33.8154 46.1181C33.1958 46.6429 31.9517 46.3683 31.1627 46.4361C30.846 46.4633 30.003 46.5377 29.6983 46.5073C29.5545 46.493 29.4123 46.4633 29.2721 46.4359C29.0439 46.3914 28.7667 46.2399 28.712 45.9902H28.7122ZM28.5141 43.855C28.5042 43.4994 28.5108 43.1434 28.5119 42.7876C28.5273 42.8021 28.532 42.7645 28.5391 42.8819C28.5415 42.9204 28.5457 42.9553 28.5494 42.9957C28.556 43.069 28.5649 43.1433 28.5747 43.2143C28.6132 43.4967 28.6666 43.7165 28.7841 43.974C28.8094 44.0295 28.8369 44.0809 28.8672 44.1309C28.8902 44.1687 28.9453 44.2411 28.9582 44.2765C28.804 44.3416 28.7248 44.2966 28.6467 44.194C28.5772 44.1027 28.5183 43.9942 28.5143 43.8549L28.5141 43.855ZM33.5843 42.4264C33.6113 42.4452 33.5947 42.4177 33.6023 42.4603C33.6044 42.472 33.6033 42.5074 33.604 42.5221L33.6197 42.8838C33.6241 43.0407 33.6622 43.7331 33.6211 43.8323C33.5986 43.8864 33.5568 43.9406 33.5295 43.9772C33.4937 44.0251 33.4635 44.0809 33.3651 44.034C33.2749 43.9909 33.3682 43.8362 33.4173 43.6895C33.5038 43.4302 33.5433 43.1522 33.558 42.8772L33.5705 42.445C33.5802 42.4209 33.5608 42.4441 33.5841 42.4266L33.5843 42.4264ZM27.4553 41.3339C27.5204 41.3901 27.6424 41.6436 27.6827 41.7644C27.8351 42.222 27.7706 42.5263 27.7642 42.9768C27.7533 43.7553 27.7062 43.8804 28.1963 44.4998C28.2776 44.6024 28.6231 44.9953 28.6491 45.0421C28.6931 45.1215 28.7173 45.2189 28.7075 45.3262C28.6457 45.3029 28.1647 44.7374 28.0951 44.6492C27.9199 44.427 27.7119 44.1505 27.6389 43.8009C27.598 43.6057 27.498 41.7086 27.4552 41.3339H27.4553ZM27.4358 40.3984C27.4757 40.518 27.5758 40.6584 27.6519 40.7124C27.9962 40.9563 28.211 40.637 28.5102 40.8048C28.5681 40.8372 28.7483 41.0096 28.7699 41.0785C28.6697 41.0395 28.6135 40.9536 28.3775 40.9347C28.1767 40.9187 27.4881 41.1001 27.3921 40.6263C27.3786 40.5597 27.3887 40.4544 27.4356 40.3986L27.4358 40.3984ZM34.4413 40.1892C34.6146 40.2896 34.5667 40.6982 34.1351 40.7871C33.9512 40.8249 33.8109 40.7689 33.6308 40.7797C33.4421 40.791 33.3422 40.8419 33.2317 40.9416C33.1836 40.985 33.1645 40.9666 33.1985 40.9204C33.2163 40.8961 33.2408 40.8672 33.2605 40.8462C33.3047 40.7991 33.3505 40.7456 33.3985 40.7051C33.5571 40.5712 33.6066 40.5921 33.8092 40.628C34.1786 40.6935 34.3747 40.4985 34.4415 40.1892H34.4413ZM27.846 40.3441C27.8115 40.324 27.7487 40.2645 27.7342 40.2159C27.7659 40.1371 27.8405 40.0696 27.9166 40.1452C27.9589 40.187 27.9572 40.2095 27.9201 40.256C27.895 40.2876 27.8747 40.3186 27.8459 40.3439L27.846 40.3441ZM34.0712 39.8839C34.1004 39.9014 34.1658 39.9658 34.179 40.0023C34.1969 40.0521 34.1319 40.1168 34.0882 40.1189C34.0396 40.1211 33.9726 40.0556 33.9762 40.0112C33.9784 39.9834 34.0481 39.9017 34.0713 39.884L34.0712 39.8839ZM29.6733 35.9348C29.6706 35.9376 29.6743 35.9442 29.6532 35.9484C29.6315 35.9528 29.6408 35.9461 29.634 35.943C29.6418 35.9147 29.6598 35.9256 29.6731 35.9348H29.6733Z" fill="#1C1B17"/>
<path fill-rule="evenodd" clip-rule="evenodd" d="M52.0874 25.6262L52.2229 25.729L52.3862 25.6127L53.8425 25.2011C53.664 24.7263 53.5874 24.9369 53.015 25.1177C52.5841 25.2539 52.2659 25.2316 52.0874 25.6264V25.6262ZM53.0529 34.9598L53.2127 34.6723L53.057 34.9524L53.0518 34.9512C53.0936 34.4845 53.0572 34.7983 53.2127 34.6721L54.4628 34.7933C55.0444 34.8759 54.7127 34.7582 54.833 35.0173C54.6862 35.1229 55.0467 35.1921 54.1763 35.077C53.9307 35.0446 53.7237 35.0392 53.4789 35.0414L53.0931 34.9599C53.3968 34.9605 53.2793 34.9114 53.4789 35.0414L53.0528 34.9596L53.0529 34.9598ZM12.3496 22.0301L12.257 22.7029L12.5261 22.5812C12.8809 22.4814 12.9588 22.3628 13.2235 22.2177L13.2315 24.7675L13.9026 24.7866L13.9009 21.1665C12.7758 21.1076 13.814 21.3046 12.3496 22.0302V22.0301ZM53.2098 32.8693L54.9732 32.8597L54.9728 32.8369H54.975L54.9347 32.0727L54.9721 32.7836L54.964 32.0595L53.1926 32.0725L53.2097 32.8695L53.2098 32.8693ZM30.5057 8.37676L31.273 8.3469L31.2733 8.36226L31.3155 8.36377L31.3079 10.0802L30.4884 10.0696L30.527 8.49941L30.5057 8.3766V8.37676ZM31.067 8.355L30.531 8.33594L30.53 8.37592L31.0668 8.355H31.067ZM22.1375 15.4213C22.1441 15.4331 22.1849 15.4512 22.2047 15.5984C22.2646 16.0432 22.1377 17.3496 22.2529 17.9551L22.9203 17.9612V17.9139L22.2625 17.9091L22.9227 17.9141L22.9261 14.2751C22.2732 14.2662 22.4135 14.2878 22.0599 14.6987C21.803 14.9977 21.6891 15.0564 21.3304 15.2389L21.3549 15.8002L22.1375 15.4213ZM6.80271 32.5925L6.78027 32.7787C7.27897 32.9086 8.04322 32.868 8.48287 32.8079L8.45942 31.9959L6.92317 32.0187L6.80271 32.5925ZM7.32638 27.3772C7.40078 27.6421 7.02034 27.4786 8.07594 27.7123C8.4606 27.7975 8.69527 27.9574 8.93973 27.7455C8.86566 27.5159 9.1997 27.6359 8.17312 27.4157C7.85426 27.3474 7.54789 27.2126 7.32655 27.3772H7.32638ZM7.29939 37.4113C7.47062 37.5471 7.24287 37.4801 7.50183 37.5142C7.5565 37.5214 7.68471 37.4944 7.74697 37.483C7.87383 37.4599 8.05621 37.4087 8.18544 37.3833C9.20966 37.1822 8.87157 37.2854 8.91847 37.043C8.70202 36.8699 8.43209 37.0175 8.09062 37.0916C7.02794 37.322 7.41579 37.1459 7.29939 37.4113ZM21.6366 12.0011L21.8575 11.9466C21.9292 11.7043 21.7298 11.4358 21.6044 11.1518C21.217 10.2751 21.4661 10.515 21.1158 10.4132C21.0278 10.5686 21.034 10.381 21.0451 10.6062L21.6366 12.0011ZM6.89533 34.9257C7.01174 35.0173 6.89516 35.0833 7.40061 35.0386C7.52242 35.0278 7.67594 34.9981 7.80061 34.9864C8.10699 34.9578 8.34385 34.9858 8.56283 34.8336C8.44575 34.4386 8.15794 34.6426 7.68927 34.6905C6.65864 34.7958 7.05459 34.6747 6.89533 34.9257ZM7.97185 25.0757C8.21563 25.2357 8.52791 25.3013 8.82517 25.4045C9.18941 25.5311 9.39743 25.7065 9.57811 25.4381C9.41329 25.1795 9.07722 25.1609 8.71737 25.0422C8.32901 24.9139 8.02634 24.6611 7.97202 25.0757H7.97185ZM13.0027 16.3217C12.9887 16.3625 12.8687 16.4091 13.1269 16.6723L14.1781 17.4949C14.1867 17.4826 14.3129 17.2611 14.3411 17.214C13.4817 16.7774 13.4881 16.3558 13.2475 16.2704C12.8355 16.1241 13.0901 16.2697 13.0025 16.3219L13.0027 16.3217ZM26.271 10.5183C26.4173 10.2992 26.2224 9.51874 26.1406 9.19719C26.0139 8.69984 26.1251 8.9664 25.9029 8.86382C25.7141 9.11536 25.8243 9.24375 25.9302 9.75898C25.9576 9.89192 25.9879 10.1075 26.019 10.2258C26.1607 10.7646 25.9965 10.4443 26.271 10.5183ZM11.4207 18.2554C11.3271 18.5674 11.2883 18.3118 11.9709 18.8503L12.5126 19.2489C12.7743 19.3157 12.6202 19.2876 12.7694 19.1983C12.8065 18.9566 12.8698 19.1042 12.1943 18.621L11.6576 18.2276C11.1798 18.0545 11.606 18.1672 11.4207 18.2554ZM7.3036 29.759C6.67298 29.7288 7.09491 29.7299 6.91456 29.8625C7.04717 30.0047 6.61309 29.9934 7.2815 30.0924L8.14039 30.1845C8.28312 30.1914 8.2789 30.1891 8.41555 30.167L8.5797 30.0899C8.52386 29.8814 8.69105 29.9526 8.32006 29.8749L7.30377 29.7587L7.3036 29.759ZM35.5686 10.5684C35.8068 10.425 35.6705 10.7758 35.8964 9.73722C35.9693 9.40234 36.1082 9.12093 35.9367 8.89233C35.6877 8.96083 35.8176 8.57095 35.5941 9.65101C35.355 10.8056 35.4227 10.3682 35.5685 10.5684H35.5686ZM8.89333 22.5903C8.92404 22.9762 8.62256 22.6555 9.19228 22.9183C10.427 23.4879 10.2258 23.4874 10.427 23.2346C10.2713 22.9711 9.12159 22.454 8.89333 22.5903ZM17.77 14.2648C17.7692 13.9649 17.075 13.0297 16.8229 12.8696C16.5418 13.1841 16.9348 13.4609 17.3445 14.0231C17.6475 14.4389 17.3638 14.3642 17.77 14.2648ZM33.3592 10.176C33.4546 9.90879 33.4552 9.67125 33.4854 9.37551C33.4994 9.23801 33.5288 9.09259 33.5418 8.96538C33.5457 8.92709 33.563 8.72059 33.5583 8.69208C33.5168 8.43547 33.5651 8.63404 33.4512 8.48069C33.1939 8.59861 33.3068 8.27284 33.2202 8.8564C33.2018 8.97972 33.199 9.19145 33.1828 9.33485C33.0655 10.3667 33.0093 10.1214 33.3592 10.1759V10.176ZM53.0873 30.1388C53.2593 30.2633 53.042 30.2102 53.3298 30.2658L54.5365 30.1567C55.026 30.055 54.6828 30.2205 54.8485 29.9547C54.6774 29.824 54.8935 29.8857 54.6244 29.8331C54.586 29.8255 54.3957 29.8397 54.3483 29.8437C54.2209 29.8547 54.0643 29.8859 53.9238 29.8987C52.8684 29.9952 53.2539 29.918 53.0875 30.1388H53.0873ZM48.9635 19.3112C49.0826 19.3618 48.9373 19.4026 49.1604 19.3517C49.3738 19.3029 50.2969 18.5614 50.4445 18.4317C50.3619 18.32 50.368 18.321 50.2726 18.2169L49.1819 18.9896C48.8962 19.1821 48.9113 18.9424 48.9635 19.3112ZM53.0531 34.9601C53.0673 34.9603 53.0806 34.9605 53.0934 34.9605L53.0531 34.9601ZM23.9609 11.1316C24.0883 10.9495 24.3088 11.5564 23.8656 10.2644C23.8118 10.1079 23.788 10.0105 23.7375 9.84604C23.554 9.24696 23.7655 9.66467 23.5096 9.49124C23.2427 9.70685 23.4595 10.0105 23.572 10.3694C23.6478 10.611 23.6991 11.0982 23.9611 11.1316H23.9609ZM14.6994 14.597C14.9231 15.0292 15.0338 14.9741 15.5178 15.5784C15.7848 15.9119 15.5696 15.8242 15.937 15.7486C15.9638 15.4459 15.9883 15.6119 15.7896 15.4022C15.6367 15.241 15.6244 15.2222 15.4937 15.0495C15.264 14.7458 15.1031 14.68 14.8826 14.4361L14.6996 14.597H14.6994ZM28.5723 10.173C28.6898 10.0367 28.7114 10.3721 28.6987 9.80116L28.5958 8.85994C28.5206 8.33543 28.612 8.60772 28.3885 8.46348C28.184 8.72835 28.2002 7.94842 28.3297 9.36606C28.3419 9.49867 28.3427 9.6775 28.361 9.80099C28.4333 10.2929 28.3547 10.0623 28.5725 10.173H28.5723ZM51.2778 23.3269C51.4998 23.5916 51.7959 23.3455 52.5531 23.0113C53.0334 22.7992 52.813 22.9392 52.908 22.6825C52.5831 22.5013 52.3135 22.8007 51.679 23.0421C51.2484 23.206 51.3917 23.125 51.278 23.3267L51.2778 23.3269ZM39.9872 12.0092C40.3233 11.9761 40.1328 12.0838 40.4982 11.3128L40.7515 10.7292C40.812 10.5053 40.7358 11.0196 40.7748 10.5993L40.7589 10.476C40.4239 10.4033 40.6363 10.1288 40.2214 11.1372C40.0697 11.5058 39.8489 11.7421 39.9872 12.009V12.0092ZM37.87 11.1903C38.049 11.0688 37.9088 11.4825 38.1272 10.7761C38.4415 9.75966 38.6288 9.64257 38.2383 9.54067C38.062 9.80234 38.0127 10.0772 37.9074 10.3937C37.7733 10.797 37.5801 10.983 37.8701 11.1903H37.87ZM52.7299 27.8376C52.891 27.935 52.4981 28.0298 53.1953 27.9014L54.1101 27.7101C54.6201 27.5775 54.3442 27.7045 54.4488 27.4694C54.2093 27.2839 54.0869 27.3842 53.5585 27.4936C52.3867 27.7364 52.8814 27.5459 52.7299 27.8376ZM45.828 15.8397C45.8292 15.84 45.8471 16.1545 46.2442 15.6858C46.6054 15.2595 46.322 15.4542 46.8561 15.0043C46.9106 14.9584 47.0071 14.8959 47.0389 14.8099C47.1462 14.5184 46.9958 14.4964 46.845 14.5484C46.749 14.5815 46.6906 14.6419 46.64 14.6923L46.0728 15.4226C46.0313 15.4653 45.8778 15.5863 45.8722 15.5942L45.8184 15.768C45.8162 15.7818 45.8243 15.8157 45.8282 15.8395L45.828 15.8397ZM47.4181 17.488C47.8164 17.6509 47.6864 17.4885 48.1549 17.1345C48.8344 16.6213 48.5783 16.7067 48.8793 16.4486L48.7192 16.2616C48.4449 16.4086 48.3008 16.5258 48.0771 16.778C47.5312 17.3937 47.6449 16.9255 47.4179 17.4878L47.4181 17.488ZM44.0278 14.3301C44.4266 14.5307 44.0163 14.6203 44.9228 13.4351C45.382 12.8349 45.1038 13.0805 45.0549 12.9848C44.7475 12.8931 45.0481 12.7976 44.4607 13.538C44.0897 14.0058 43.9394 14.1035 44.0276 14.3301H44.0278ZM54.0537 37.2404C53.1869 37.0433 52.781 36.8216 52.7302 37.2272C53.0494 37.4295 54.1418 37.7077 54.42 37.5034C54.3518 37.251 54.5306 37.3487 54.0535 37.2402L54.0537 37.2404ZM19.99 15.3707L19.9985 17.9362L20.6736 17.9291L20.6741 14.2933C20.6573 14.2932 20.3772 14.2856 20.3744 14.2862C20.0714 14.3522 20.2652 14.2667 20.1441 14.4308C19.8986 14.5862 19.6315 15.052 19.0562 15.175L19.0738 15.8389C19.272 15.7771 19.3893 15.742 19.5878 15.6307C19.8242 15.4982 19.7314 15.4768 19.99 15.3707ZM9.86981 20.6575L10.1925 20.9146C10.3142 20.995 10.4048 21.0438 10.5377 21.1165C10.796 21.2577 11.005 21.3816 11.2662 21.5081C11.5174 21.2086 11.5312 21.1381 11.665 20.7892L10.1571 20.1788L9.86981 20.6576V20.6575ZM30.5061 8.3771C30.5138 8.41759 30.5211 8.45859 30.5273 8.49992L30.5061 8.3771ZM41.7399 12.9924L42.5187 13.2907C42.6103 12.819 43.0523 12.2796 43.26 11.8201L42.657 11.4356L41.7399 12.9924ZM18.5432 11.8418C18.8396 12.1857 19.0841 12.8316 19.3565 13.1817L20.0224 12.8583C19.8655 12.3996 19.5237 11.7659 19.1831 11.4025C18.996 11.4722 19.011 11.455 18.8438 11.5623C18.6475 11.6883 18.6471 11.7173 18.5432 11.8418ZM50.0439 20.8658C50.1373 21.1109 50.1105 21.0654 50.2303 21.2722L50.4818 21.5921C50.8975 21.4234 51.6073 21.0364 51.9169 20.7494C51.7856 20.4076 51.7276 20.3066 51.4765 20.1203C51.1865 20.3344 50.3789 20.7966 50.0439 20.8658ZM28.5158 12.5874L28.4932 13.1912C28.8733 13.1001 29.1552 12.9378 29.3744 12.741L29.37 15.3314L30.0934 15.3297L29.9535 11.6553C29.3535 11.6598 29.5628 11.6657 29.2009 12.0829C28.9391 12.3846 28.9256 12.3753 28.516 12.5875L28.5158 12.5874ZM39.6699 15.8353C40.1495 15.6737 40.1934 15.5573 40.5659 15.3732L40.5777 17.9654L41.184 17.9581C41.415 17.5593 41.2868 15.1986 41.3069 14.2658C40.395 14.2699 40.8456 14.3323 40.3167 14.8163C39.7144 15.3677 39.6699 14.8177 39.6699 15.8353ZM49.7692 31.8991C49.3849 32.1986 49.4802 31.7984 49.3427 32.4403C49.5897 32.6352 49.9502 32.5095 50.0867 32.8423C50.2752 33.3022 49.9212 34.2163 49.1868 33.3766C48.95 33.106 48.87 33.2172 48.432 33.239C48.6095 34.1282 49.3766 34.603 50.3153 34.1233C50.6153 33.97 50.8805 33.6182 50.8535 33.0912C50.8246 32.5269 50.5384 32.4906 50.251 32.2562C50.5274 32.0813 50.7254 31.8854 50.69 31.4341C50.6364 30.7532 49.7326 30.3375 49.0353 30.7092C48.6505 30.9144 48.57 31.1539 48.4875 31.5647C49.3748 31.6411 49.1023 31.558 49.1725 31.4908C49.3399 31.3307 49.1912 31.1912 49.5669 31.1782C49.9474 31.1651 50.1318 31.6165 49.7692 31.8989V31.8991ZM30.8108 12.7733C30.8261 12.7738 31.2457 12.7942 31.2479 12.7939C31.8871 12.7016 31.4125 12.1879 32.0605 12.2596C32.5449 12.313 32.5655 12.8234 32.2444 13.2829C31.7558 13.9822 30.9461 14.1076 30.7311 15.3456L33.178 15.3147L33.1834 14.6749L31.8478 14.6599C32.1068 14.1356 33.5064 13.537 33.1256 12.3335C32.8735 11.5368 31.0545 11.1142 30.8109 12.7733H30.8108ZM46.0882 24.0508L45.786 24.8311L48.3312 24.8433L48.2424 24.1973L46.925 24.1936C47.31 23.5857 48.6434 23.0131 48.193 21.7655C48.0379 21.3362 47.518 21.0973 46.895 21.1789C46.1548 21.2759 45.978 21.7227 45.8974 22.2759L46.524 22.299C46.8474 21.8843 46.7995 21.6824 47.4694 21.8307C47.8124 23.0718 46.5572 23.2085 46.0884 24.0508H46.0882ZM15.869 21.7119C16.5037 22.0596 16.4062 24.2165 15.8638 24.26C15.2293 24.3108 15.0606 21.9956 15.869 21.7119ZM17.0188 23.2348C17.0188 22.3673 16.942 21.1703 15.8709 21.1379C14.1995 21.0873 14.2225 24.6133 15.5964 24.8446C16.6009 25.0137 17.0186 24.1462 17.0186 23.235L17.0188 23.2348ZM12.2982 32.3787C11.5161 32.6659 11.1847 31.8559 11.5545 31.338C11.9727 30.7526 12.5485 31.4158 12.2982 32.3787ZM10.8613 33.4529C10.9882 34.6085 12.4304 34.5159 12.9243 33.7227C13.3022 33.1158 13.2688 31.4994 12.8294 30.9737C12.2239 30.2493 10.8707 30.5187 10.7575 31.6096C10.6391 32.7517 11.6745 33.3989 12.4375 32.7796C12.4137 33.1968 12.3539 33.3776 12.2224 33.659C11.4081 33.7908 11.7934 33.6346 11.3566 33.3134L10.8611 33.4527L10.8613 33.4529Z" fill="#727271"/>
<path fill-rule="evenodd" clip-rule="evenodd" d="M30.8748 5.84685C45.3414 5.84685 57.0688 17.5744 57.0688 32.0408C57.0688 33.5055 56.9466 34.9416 56.7155 36.3408C56.3007 36.3645 55.9223 36.4888 55.5847 36.6673C55.8637 35.1675 56.0112 33.6214 56.0112 32.0408C56.0112 18.1584 44.7572 6.90447 30.8748 6.90447C16.9924 6.90447 5.73846 18.1584 5.73846 32.0408C5.73846 33.6385 5.88928 35.2007 6.17423 36.7155C5.75482 36.5041 5.36646 36.3898 5.03259 36.3321C4.8023 34.9355 4.68066 33.5025 4.68066 32.0407C4.68066 17.574 16.4082 5.84668 30.8748 5.84668V5.84685Z" fill="#009846"/>
<path fill-rule="evenodd" clip-rule="evenodd" d="M7.5709 41.595C7.53008 41.2765 7.53007 40.8053 7.66555 40.4257C7.73354 40.2351 7.83695 40.0644 7.98963 39.9491C8.14333 39.8331 8.34324 39.776 8.59732 39.8066C9.109 39.8678 9.41605 40.2515 9.59201 40.6925C9.76781 41.1333 9.81724 41.6411 9.80897 41.975L9.87544 45.7201L9.87679 45.7987L9.81066 45.7562C9.29745 45.4271 8.14299 44.5339 7.63113 44.1294L7.61561 44.117L7.6151 44.0971L7.57056 41.595H7.5709ZM54.2105 41.595C54.2513 41.2765 54.2513 40.8053 54.1158 40.4256C54.0479 40.2349 53.9444 40.0642 53.7918 39.949C53.6381 39.8329 53.4382 39.7759 53.1839 39.8064C52.6722 39.8678 52.3652 40.2513 52.1892 40.6925C52.0134 41.1333 51.964 41.6409 51.9721 41.9748L51.9056 45.7199L51.9043 45.7985L51.9704 45.756C52.4836 45.4269 53.6381 44.5337 54.1501 44.1292L54.1656 44.1169L54.1661 44.097L54.2105 41.595ZM51.5618 43.7385C51.5878 43.483 51.5866 42.9705 51.4329 42.5491C51.356 42.338 51.2394 42.1459 51.0649 42.0217C50.8892 41.8965 50.6592 41.8441 50.3645 41.9043C49.8906 42.0008 49.6127 42.3244 49.4585 42.6839C49.3053 43.0417 49.2724 43.4385 49.2891 43.6965L49.2264 47.2304L49.2252 47.297L49.2859 47.2695C50.0013 46.9444 51.0604 46.3447 51.5002 46.0857L51.5211 46.0734L51.521 46.0491C51.5176 45.4444 51.5213 44.1393 51.5618 43.7386V43.7385ZM60.7612 36.7341C60.988 36.5969 61.1606 36.5443 61.2905 36.5439C61.418 36.5436 61.5069 36.5941 61.5697 36.6723C61.6339 36.7523 61.6722 36.8635 61.6911 36.9851C61.7099 37.1059 61.7089 37.2331 61.6967 37.3421C61.2633 40.4672 58.7735 48.9893 49.4219 54.3301C45.6839 56.4048 38.2179 58.4715 30.891 56.0917C23.5638 58.4715 16.098 56.4048 12.3598 54.3301C3.00822 48.9893 0.518438 40.4672 0.0850292 37.3421C0.0728823 37.2331 0.07187 37.1057 0.0905965 36.9851C0.109492 36.8636 0.147957 36.7523 0.212066 36.6723C0.274825 36.5941 0.363733 36.5436 0.491276 36.5439C0.62118 36.5443 0.793768 36.5971 1.02051 36.7341C2.15642 37.4214 2.84997 38.7851 3.64087 40.584C3.84129 41.0398 4.33071 41.6986 5.02882 42.459C5.72795 43.2205 6.63947 44.0872 7.68765 44.9591C9.78383 46.7023 12.4297 48.469 15.0213 49.4568C15.6699 49.7039 16.1792 49.8256 16.5731 49.845C16.967 49.8646 17.25 49.7819 17.4393 49.6154C17.6287 49.4487 17.7169 49.2042 17.7352 48.9163C17.7534 48.6283 17.7023 48.2924 17.6086 47.9354C17.4212 47.2213 17.0605 46.4128 16.7258 45.7166C16.6217 45.4999 16.5196 45.2936 16.426 45.1041L16.4258 45.1038L16.4248 45.1018C16.3686 44.9877 16.3153 44.8799 16.2664 44.7799C16.1355 44.5115 16.0371 44.2996 15.9936 44.167C15.8185 43.6318 15.7925 42.7986 16.0079 42.0067C16.2234 41.2153 16.6779 40.4726 17.4561 40.1077C17.8447 39.9257 18.0999 39.9569 18.2776 40.0996C18.4606 40.2466 18.5736 40.52 18.6531 40.8519C18.7142 41.1078 18.754 41.3909 18.7925 41.6662C18.8038 41.7464 18.8149 41.8258 18.8264 41.9038C18.877 42.2451 18.9357 42.5604 19.0491 42.7562C19.1174 42.8743 19.1872 43.0317 19.2736 43.2269H19.2738C19.323 43.3383 19.3777 43.4618 19.4406 43.5973C19.6129 43.9679 19.8443 44.4211 20.1892 44.9383C20.879 45.973 22.0215 47.2617 24.0504 48.6602C24.4799 48.9562 24.9052 49.2402 25.3268 49.5221C26.8953 50.5699 28.4133 51.5842 29.9177 53.0565C30.2423 53.3819 30.5665 53.7273 30.8908 54.0979C31.215 53.7273 31.5393 53.3819 31.8639 53.0565C33.3682 51.5844 34.8863 50.5701 36.4547 49.5221C36.8762 49.2403 37.3015 48.9564 37.7312 48.6602C39.7601 47.2617 40.9025 45.973 41.5922 44.9383C41.9372 44.4211 42.1685 43.9679 42.3409 43.5973C42.4039 43.4618 42.4585 43.3383 42.5078 43.2269H42.508C42.5943 43.0319 42.664 42.8743 42.7325 42.7562C42.8459 42.5604 42.9048 42.2451 42.9552 41.9038C42.9668 41.8258 42.9778 41.7464 42.9891 41.6662C43.0276 41.3911 43.0672 41.1078 43.1285 40.8519C43.2078 40.5202 43.3208 40.2466 43.504 40.0998C43.6817 39.9572 43.9371 39.9259 44.3254 40.1079C45.1037 40.4728 45.5582 41.2154 45.7736 42.0069C45.9892 42.7988 45.9632 43.6318 45.7881 44.1671C45.7446 44.2999 45.6462 44.5118 45.5153 44.7802C45.4666 44.8803 45.4133 44.9881 45.3569 45.1021L45.3559 45.104L45.3557 45.1043C45.2621 45.2938 45.16 45.5001 45.0559 45.7167C44.7212 46.4128 44.3605 47.2214 44.1731 47.9356C44.0795 48.2925 44.0283 48.6284 44.0466 48.9163C44.065 49.2044 44.153 49.4487 44.3425 49.6155C44.5318 49.7821 44.8149 49.8646 45.2088 49.8452C45.6027 49.8258 46.112 49.7041 46.7606 49.457C49.3522 48.469 51.9981 46.7025 54.0943 44.9592C55.1424 44.0874 56.054 43.2207 56.7531 42.4592C57.4512 41.6986 57.9406 41.0398 58.141 40.584C58.9318 38.7852 59.6255 37.4216 60.7614 36.7341H60.7612ZM10.2196 43.7385C10.1936 43.483 10.195 42.9705 10.3485 42.5492C10.4254 42.3382 10.542 42.146 10.7164 42.0219C10.8922 41.8967 11.1222 41.8442 11.4169 41.9043C11.8908 42.0008 12.1687 42.3244 12.3229 42.6839C12.4761 43.0415 12.509 43.4385 12.4923 43.6963L12.555 47.2302L12.5562 47.297L12.4955 47.2695C11.7801 46.9444 10.7208 46.3447 10.281 46.0857L10.2601 46.0734L10.2603 46.0491C10.2635 45.4444 10.2599 44.1393 10.2193 43.7386L10.2196 43.7385ZM4.55324 38.282C4.38892 38.7879 4.38166 39.4378 4.42468 39.8817L4.44189 40.8482L4.44223 40.8632L4.45184 40.8747C5.01027 41.5377 6.30206 43.0085 6.9892 43.5718L7.05972 43.6295L7.05803 43.5385L6.99224 39.8364C7.01484 39.5152 6.97587 39.0175 6.78557 38.5627C6.59443 38.1062 6.24874 37.6895 5.65709 37.5439C5.35865 37.4705 5.12212 37.525 4.93941 37.6665C4.75872 37.8067 4.63557 38.0287 4.55324 38.282ZM57.228 38.282C57.3923 38.7879 57.3996 39.4378 57.3565 39.8817L57.3393 40.8482L57.3392 40.8632L57.3296 40.8747C56.7711 41.5377 55.4793 43.0085 54.792 43.5718L54.7217 43.6295L54.7234 43.5385L54.7892 39.8364C54.7666 39.515 54.8054 39.0174 54.9958 38.5627C55.1868 38.106 55.5327 37.6895 56.1243 37.5439C56.4228 37.4705 56.6593 37.525 56.842 37.6667C57.0227 37.8069 57.1458 38.0287 57.2282 38.2821L57.228 38.282Z" fill="#EF7F1A"/>
<path d="M21.0951 30.5796C20.6035 30.5796 20.1796 30.5005 19.8236 30.3422C19.4733 30.1783 19.1512 29.9325 18.8573 29.6048L19.7219 28.7486C19.914 28.969 20.126 29.1414 20.3576 29.2657C20.595 29.3844 20.8691 29.4437 21.1799 29.4437C21.4624 29.4437 21.68 29.3929 21.8326 29.2911C21.9908 29.1894 22.0699 29.0481 22.0699 28.8673C22.0699 28.7034 22.019 28.5706 21.9173 28.4689C21.8156 28.3672 21.68 28.2796 21.5105 28.2061C21.3466 28.1327 21.1629 28.062 20.9595 27.9942C20.7617 27.9264 20.5639 27.8501 20.3661 27.7654C20.1683 27.6749 19.9847 27.5648 19.8152 27.4348C19.6513 27.2992 19.5185 27.1325 19.4168 26.9347C19.315 26.7312 19.2642 26.4769 19.2642 26.1718C19.2642 25.8045 19.3518 25.488 19.5269 25.2224C19.7078 24.9568 19.9564 24.7562 20.2729 24.6206C20.5893 24.4793 20.9538 24.4087 21.3664 24.4087C21.7845 24.4087 22.166 24.4821 22.5107 24.6291C22.861 24.776 23.1493 24.9766 23.3753 25.2309L22.5107 26.087C22.3299 25.9005 22.1462 25.7621 21.9597 25.6717C21.7789 25.5812 21.5726 25.536 21.3409 25.536C21.1092 25.536 20.9256 25.5812 20.79 25.6717C20.6543 25.7564 20.5865 25.8808 20.5865 26.0446C20.5865 26.1972 20.6374 26.3215 20.7391 26.4176C20.8408 26.508 20.9736 26.5871 21.1375 26.6549C21.307 26.7228 21.4907 26.7906 21.6885 26.8584C21.8919 26.9262 22.0925 27.0053 22.2903 27.0957C22.4881 27.1861 22.6689 27.302 22.8328 27.4433C23.0023 27.5789 23.1379 27.7541 23.2397 27.9688C23.3414 28.1779 23.3922 28.4378 23.3922 28.7486C23.3922 29.3194 23.1888 29.7686 22.7819 30.0964C22.3751 30.4185 21.8128 30.5796 21.0951 30.5796ZM25.4829 30.4863V24.5867H26.8137V30.4863H25.4829ZM23.6096 25.6632V24.5019H28.687V25.6632H23.6096ZM30.9126 30.5796C30.421 30.5796 29.9972 30.5005 29.6412 30.3422C29.2908 30.1783 28.9687 29.9325 28.6748 29.6048L29.5394 28.7486C29.7316 28.969 29.9435 29.1414 30.1752 29.2657C30.4125 29.3844 30.6866 29.4437 30.9974 29.4437C31.28 29.4437 31.4975 29.3929 31.6501 29.2911C31.8083 29.1894 31.8874 29.0481 31.8874 28.8673C31.8874 28.7034 31.8366 28.5706 31.7349 28.4689C31.6331 28.3672 31.4975 28.2796 31.328 28.2061C31.1641 28.1327 30.9805 28.062 30.777 27.9942C30.5792 27.9264 30.3814 27.8501 30.1837 27.7654C29.9859 27.6749 29.8022 27.5648 29.6327 27.4348C29.4688 27.2992 29.336 27.1325 29.2343 26.9347C29.1326 26.7312 29.0817 26.4769 29.0817 26.1718C29.0817 25.8045 29.1693 25.488 29.3445 25.2224C29.5253 24.9568 29.774 24.7562 30.0904 24.6206C30.4069 24.4793 30.7714 24.4087 31.1839 24.4087C31.6021 24.4087 31.9835 24.4821 32.3282 24.6291C32.6786 24.776 32.9668 24.9766 33.1928 25.2309L32.3282 26.087C32.1474 25.9005 31.9637 25.7621 31.7772 25.6717C31.5964 25.5812 31.3902 25.536 31.1585 25.536C30.9268 25.536 30.7431 25.5812 30.6075 25.6717C30.4719 25.7564 30.4041 25.8808 30.4041 26.0446C30.4041 26.1972 30.4549 26.3215 30.5566 26.4176C30.6583 26.508 30.7911 26.5871 30.955 26.6549C31.1246 26.7228 31.3082 26.7906 31.506 26.8584C31.7094 26.9262 31.91 27.0053 32.1078 27.0957C32.3056 27.1861 32.4864 27.302 32.6503 27.4433C32.8199 27.5789 32.9555 27.7541 33.0572 27.9688C33.1589 28.1779 33.2098 28.4378 33.2098 28.7486C33.2098 29.3194 33.0063 29.7686 32.5995 30.0964C32.1926 30.4185 31.6303 30.5796 30.9126 30.5796ZM34.0575 30.4863V24.5019H35.0069L37.3633 28.1722H36.8802L39.2282 24.5019H40.186V30.4863H38.8552V26.7482L39.0926 26.8075L37.5583 29.1979H36.6767L35.151 26.8075L35.3798 26.7482V30.4863H34.0575Z" fill="#2B2A29"/>
</g>
<defs>
<clipPath id="clip0_2816_7665">
<rect width="61.776" height="61.776" fill="white" transform="translate(0 0.612305)"/>
</clipPath>
</defs>
</svg>
