<?xml version="1.0" standalone="no"?>
<!DOCTYPE svg PUBLIC "-//W3C//DTD SVG 20010904//EN"
 "http://www.w3.org/TR/2001/REC-SVG-20010904/DTD/svg10.dtd">
<svg version="1.0" xmlns="http://www.w3.org/2000/svg"
 width="512.000000pt" height="512.000000pt" viewBox="0 0 512.000000 512.000000"
 preserveAspectRatio="xMidYMid meet">

<g transform="translate(0.000000,512.000000) scale(0.100000,-0.100000)"
fill="#000000" stroke="none">
<path d="M2335 4899 c-697 -369 -2078 -1119 -2100 -1140 l-30 -29 -5 -1203
c-3 -661 -2 -1245 2 -1298 34 -438 365 -812 803 -905 105 -22 239 -28 340 -15
122 16 285 72 385 132 46 27 87 49 92 49 5 0 127 -64 271 -142 226 -122 268
-142 307 -142 41 0 147 55 1087 562 574 309 1051 567 1062 574 10 6 26 24 35
39 14 24 16 136 16 1178 0 868 -3 1156 -12 1176 -15 34 23 13 -1149 644 -663
356 -1017 541 -1036 541 -15 0 -46 -9 -68 -21z m984 -729 c495 -267 901 -487
901 -490 0 -7 -453 -250 -467 -250 -10 0 -1730 993 -1744 1007 -10 10 369 222
392 220 9 -1 422 -220 918 -487z m-1350 -719 c479 -278 871 -507 871 -511 0
-9 -421 -235 -439 -235 -17 0 -1821 966 -1821 975 0 6 503 278 511 276 4 0
398 -228 878 -505z m-529 -510 l835 -450 3 -985 2 -984 -57 30 c-32 17 -95 50
-140 75 l-82 44 34 48 c50 69 122 225 146 317 32 120 37 338 11 465 -73 354
-328 644 -665 759 -127 43 -198 54 -347 53 -111 -1 -152 -5 -232 -26 -171 -45
-325 -128 -445 -241 l-63 -58 0 746 0 746 83 -44 c45 -25 458 -248 917 -495z
m2913 -1432 c-5 -3 -390 -212 -858 -464 -467 -252 -878 -473 -912 -492 l-63
-35 0 984 0 985 243 130 242 131 5 -423 5 -424 29 -30 c37 -38 87 -49 131 -28
58 28 628 416 644 439 14 20 17 81 21 471 l5 449 255 138 255 137 3 -980 c1
-540 -1 -984 -5 -988z m-3254 56 l117 -115 99 101 c108 109 137 129 185 129
86 0 146 -90 109 -163 -6 -12 -59 -70 -117 -129 l-106 -108 118 -120 119 -119
-5 -53 c-7 -70 -47 -108 -113 -108 -44 0 -49 4 -168 115 l-122 114 -105 -103
c-58 -57 -115 -109 -127 -115 -83 -42 -185 35 -168 127 5 29 30 60 118 149
l111 113 -111 112 c-72 75 -112 123 -115 142 -15 77 41 146 119 146 45 0 48
-2 162 -115z"/>
</g>
</svg>
