<svg width="25" height="25" viewBox="0 0 25 25" fill="none" xmlns="http://www.w3.org/2000/svg">
<path d="M21.4244 10.1394C21.0709 9.77 20.7053 9.38938 20.5675 9.05469C20.44 8.74813 20.4325 8.24 20.425 7.74781C20.4109 6.83281 20.3959 5.79594 19.675 5.075C18.9541 4.35406 17.9172 4.33906 17.0022 4.325C16.51 4.3175 16.0019 4.31 15.6953 4.1825C15.3616 4.04469 14.98 3.67906 14.6106 3.32562C13.9637 2.70406 13.2288 2 12.25 2C11.2712 2 10.5372 2.70406 9.88937 3.32562C9.52 3.67906 9.13938 4.04469 8.80469 4.1825C8.5 4.31 7.99 4.3175 7.49781 4.325C6.58281 4.33906 5.54594 4.35406 4.825 5.075C4.10406 5.79594 4.09375 6.83281 4.075 7.74781C4.0675 8.24 4.06 8.74813 3.9325 9.05469C3.79469 9.38844 3.42906 9.77 3.07562 10.1394C2.45406 10.7863 1.75 11.5212 1.75 12.5C1.75 13.4788 2.45406 14.2128 3.07562 14.8606C3.42906 15.23 3.79469 15.6106 3.9325 15.9453C4.06 16.2519 4.0675 16.76 4.075 17.2522C4.08906 18.1672 4.10406 19.2041 4.825 19.925C5.54594 20.6459 6.58281 20.6609 7.49781 20.675C7.99 20.6825 8.49813 20.69 8.80469 20.8175C9.13844 20.9553 9.52 21.3209 9.88937 21.6744C10.5363 22.2959 11.2712 23 12.25 23C13.2288 23 13.9628 22.2959 14.6106 21.6744C14.98 21.3209 15.3606 20.9553 15.6953 20.8175C16.0019 20.69 16.51 20.6825 17.0022 20.675C17.9172 20.6609 18.9541 20.6459 19.675 19.925C20.3959 19.2041 20.4109 18.1672 20.425 17.2522C20.4325 16.76 20.44 16.2519 20.5675 15.9453C20.7053 15.6116 21.0709 15.23 21.4244 14.8606C22.0459 14.2137 22.75 13.4788 22.75 12.5C22.75 11.5212 22.0459 10.7872 21.4244 10.1394ZM16.5306 10.7806L11.2806 16.0306C11.211 16.1004 11.1283 16.1557 11.0372 16.1934C10.9462 16.2312 10.8486 16.2506 10.75 16.2506C10.6514 16.2506 10.5538 16.2312 10.4628 16.1934C10.3717 16.1557 10.289 16.1004 10.2194 16.0306L7.96937 13.7806C7.82864 13.6399 7.74958 13.449 7.74958 13.25C7.74958 13.051 7.82864 12.8601 7.96937 12.7194C8.11011 12.5786 8.30098 12.4996 8.5 12.4996C8.69902 12.4996 8.88989 12.5786 9.03063 12.7194L10.75 14.4397L15.4694 9.71937C15.5391 9.64969 15.6218 9.59442 15.7128 9.5567C15.8039 9.51899 15.9015 9.49958 16 9.49958C16.0985 9.49958 16.1961 9.51899 16.2872 9.5567C16.3782 9.59442 16.4609 9.64969 16.5306 9.71937C16.6003 9.78906 16.6556 9.87178 16.6933 9.96283C16.731 10.0539 16.7504 10.1515 16.7504 10.25C16.7504 10.3485 16.731 10.4461 16.6933 10.5372C16.6556 10.6282 16.6003 10.7109 16.5306 10.7806Z" fill="white"/>
</svg>
