<svg width="24" height="24" viewBox="0 0 24 24" fill="none" xmlns="http://www.w3.org/2000/svg">
<path fill-rule="evenodd" clip-rule="evenodd" d="M17.7072 17.7072C17.5197 17.8947 17.2654 18 17.0002 18C16.735 18 16.4807 17.8947 16.2932 17.7072L11.2932 12.7072C11.1057 12.5197 11.0004 12.2654 11.0004 12.0002C11.0004 11.735 11.1057 11.4807 11.2932 11.2932L16.2932 6.29321C16.4818 6.11105 16.7344 6.01026 16.9966 6.01254C17.2588 6.01482 17.5096 6.11999 17.695 6.3054C17.8804 6.4908 17.9856 6.74162 17.9879 7.00381C17.9902 7.26601 17.8894 7.51861 17.7072 7.70721L13.4142 12.0002L17.7072 16.2932C17.8947 16.4807 18 16.735 18 17.0002C18 17.2654 17.8947 17.5197 17.7072 17.7072ZM11.7072 17.7072C11.5197 17.8947 11.2654 18 11.0002 18C10.735 18 10.4807 17.8947 10.2932 17.7072L5.29321 12.7072C5.10574 12.5197 5.00043 12.2654 5.00043 12.0002C5.00043 11.735 5.10574 11.4807 5.29321 11.2932L10.2932 6.29321C10.4818 6.11105 10.7344 6.01026 10.9966 6.01254C11.2588 6.01482 11.5096 6.11999 11.695 6.30539C11.8804 6.4908 11.9856 6.74162 11.9879 7.00381C11.9902 7.26601 11.8894 7.51861 11.7072 7.70721L7.41421 12.0002L11.7072 16.2932C11.8947 16.4807 12 16.735 12 17.0002C12 17.2654 11.8947 17.5197 11.7072 17.7072Z" fill="black"/>
</svg>
