<svg width="22" height="16" viewBox="0 0 20 16" fill="none" xmlns="http://www.w3.org/2000/svg">
<path d="M9.58333 4.70454C8.89015 4.70454 8.22536 5.03498 7.73521 5.62316C7.24506 6.21134 6.96969 7.00909 6.96969 7.84091C6.96969 8.67272 7.24506 9.47047 7.73521 10.0587C8.22536 10.6468 8.89015 10.9773 9.58333 10.9773C10.2765 10.9773 10.9413 10.6468 11.4314 10.0587C11.9216 9.47047 12.197 8.67272 12.197 7.84091C12.197 7.00909 11.9216 6.21134 11.4314 5.62316C10.9413 5.03498 10.2765 4.70454 9.58333 4.70454ZM9.58333 13.0682C8.42803 13.0682 7.32005 12.5174 6.50313 11.5371C5.68621 10.5568 5.22727 9.22726 5.22727 7.84091C5.22727 6.45455 5.68621 5.12497 6.50313 4.14467C7.32005 3.16436 8.42803 2.61364 9.58333 2.61364C10.7386 2.61364 11.8466 3.16436 12.6635 4.14467C13.4804 5.12497 13.9394 6.45455 13.9394 7.84091C13.9394 9.22726 13.4804 10.5568 12.6635 11.5371C11.8466 12.5174 10.7386 13.0682 9.58333 13.0682ZM9.58333 0C5.22727 0 1.5072 3.25136 0 7.84091C1.5072 12.4304 5.22727 15.6818 9.58333 15.6818C13.9394 15.6818 17.6595 12.4304 19.1667 7.84091C17.6595 3.25136 13.9394 0 9.58333 0Z" fill="black"/>
</svg>
