<svg width="25" height="25" viewBox="0 0 25 25" fill="none" xmlns="http://www.w3.org/2000/svg">
<path d="M8.4375 2C7.79103 2 7.17105 2.25681 6.71393 2.71393C6.25681 3.17105 6 3.79103 6 4.4375V20.5625C6 21.209 6.25681 21.829 6.71393 22.2861C7.17105 22.7432 7.79103 23 8.4375 23H17.0625C17.709 23 18.329 22.7432 18.7861 22.2861C19.2432 21.829 19.5 21.209 19.5 20.5625V4.4375C19.5 3.79103 19.2432 3.17105 18.7861 2.71393C18.329 2.25681 17.709 2 17.0625 2H8.4375ZM7.5 4.4375C7.5 3.92 7.92 3.5 8.4375 3.5H17.0625C17.58 3.5 18 3.92 18 4.4375V20.5625C18 21.08 17.58 21.5 17.0625 21.5H8.4375C7.92 21.5 7.5 21.08 7.5 20.5625V4.4375ZM11.25 18.5C11.0511 18.5 10.8603 18.579 10.7197 18.7197C10.579 18.8603 10.5 19.0511 10.5 19.25C10.5 19.4489 10.579 19.6397 10.7197 19.7803C10.8603 19.921 11.0511 20 11.25 20H14.25C14.4489 20 14.6397 19.921 14.7803 19.7803C14.921 19.6397 15 19.4489 15 19.25C15 19.0511 14.921 18.8603 14.7803 18.7197C14.6397 18.579 14.4489 18.5 14.25 18.5H11.25Z" fill="white"/>
</svg>
