<svg width="35" height="35" viewBox="0 0 35 35" fill="none" xmlns="http://www.w3.org/2000/svg">
<rect width="35" height="35" rx="17.5" fill="#FFAE00" fill-opacity="0.2"/>
<path d="M22.871 25.327L25.711 22.531L25.085 21.904L22.871 24.087L21.916 23.112L21.289 23.744L22.871 25.327ZM12.27 14.231H22.732V13.231H12.269L12.27 14.231ZM23.5 27.616C22.386 27.616 21.441 27.2277 20.665 26.451C19.8883 25.675 19.5 24.73 19.5 23.616C19.5 22.502 19.8883 21.5567 20.665 20.78C21.4417 20.0033 22.3867 19.6153 23.5 19.616C24.6133 19.6167 25.5587 20.0047 26.336 20.78C27.1133 21.5553 27.5013 22.5007 27.5 23.616C27.5 24.7293 27.112 25.6743 26.336 26.451C25.5587 27.2277 24.6133 27.616 23.5 27.616ZM9.5 26.269V9.5H25.5V17.06C25.3373 17 25.176 16.9487 25.016 16.906C24.8553 16.8633 24.6833 16.83 24.5 16.806V10.5H10.5V24.55H16.844C16.8893 24.8233 16.948 25.0907 17.02 25.352C17.0927 25.6133 17.1937 25.8627 17.323 26.1L17.289 26.134L16.154 25.308L14.808 26.269L13.462 25.308L12.116 26.269L10.769 25.308L9.5 26.269ZM12.27 21.769H16.979C17.0163 21.5857 17.0623 21.414 17.117 21.254C17.1717 21.094 17.2357 20.9323 17.309 20.769H12.27V21.769ZM12.27 18H19.58C19.9067 17.742 20.2567 17.527 20.63 17.355C21.0033 17.1823 21.4023 17.064 21.827 17H12.269L12.27 18Z" fill="#FFAE00"/>
</svg>
