<svg width="44" height="44" viewBox="0 0 44 44" fill="none" xmlns="http://www.w3.org/2000/svg">
<rect width="44" height="44" rx="22" fill="#BD011A" fill-opacity="0.1"/>
<path d="M13.9998 30V17.1L12.0498 12.85L13.8498 12L16.1998 17.05H27.7998L30.1498 12L31.9498 12.85L29.9998 17.1V30H13.9998ZM19.9998 23H23.9998C24.2831 23 24.5208 22.904 24.7128 22.712C24.9048 22.52 25.0005 22.2827 24.9998 22C24.9998 21.7167 24.9038 21.4793 24.7118 21.288C24.5198 21.0967 24.2825 21.0007 23.9998 21H19.9998C19.7165 21 19.4791 21.096 19.2878 21.288C19.0965 21.48 19.0005 21.7173 18.9998 22C18.9998 22.2833 19.0958 22.521 19.2878 22.713C19.4798 22.905 19.7171 23.0007 19.9998 23ZM15.9998 28H27.9998V19.05H15.9998V28Z" fill="#BD011A"/>
<path d="M27.2 31.5L29 29.7L30.8 31.5L31.5 30.8L29.7 29L31.5 27.2L30.8 26.5L29 28.3L27.2 26.5L26.5 27.2L28.3 29L26.5 30.8L27.2 31.5ZM29 34C28.3083 34 27.6583 33.8687 27.05 33.606C26.4417 33.3433 25.9125 32.9872 25.4625 32.5375C25.0125 32.0875 24.6563 31.5583 24.394 30.95C24.1317 30.3417 24.0003 29.6917 24 29C24 28.3083 24.1313 27.6583 24.394 27.05C24.6567 26.4417 25.0128 25.9125 25.4625 25.4625C25.9125 25.0125 26.4417 24.6563 27.05 24.394C27.6583 24.1317 28.3083 24.0003 29 24C29.6917 24 30.3417 24.1313 30.95 24.394C31.5583 24.6567 32.0875 25.0128 32.5375 25.4625C32.9875 25.9125 33.3438 26.4417 33.6065 27.05C33.8692 27.6583 34.0003 28.3083 34 29C34 29.6917 33.8687 30.3417 33.606 30.95C33.3433 31.5583 32.9872 32.0875 32.5375 32.5375C32.0875 32.9875 31.5583 33.3438 30.95 33.6065C30.3417 33.8692 29.6917 34.0003 29 34ZM29 33C30.1167 33 31.0625 32.6125 31.8375 31.8375C32.6125 31.0625 33 30.1167 33 29C33 27.8833 32.6125 26.9375 31.8375 26.1625C31.0625 25.3875 30.1167 25 29 25C27.8833 25 26.9375 25.3875 26.1625 26.1625C25.3875 26.9375 25 27.8833 25 29C25 30.1167 25.3875 31.0625 26.1625 31.8375C26.9375 32.6125 27.8833 33 29 33Z" fill="black"/>
</svg>
