<svg width="44" height="44" viewBox="0 0 44 44" fill="none" xmlns="http://www.w3.org/2000/svg">
<rect width="44" height="44" rx="22" fill="#FFAE00" fill-opacity="0.1"/>
<g clip-path="url(#clip0_2360_5259)">
<path fill-rule="evenodd" clip-rule="evenodd" d="M18.993 15.163C19.162 16.586 18.931 18.07 18.417 19.402C17.848 20.876 17.092 22.472 16.998 24.059C16.919 25.396 17.222 26.978 18.03 28.061C18.915 29.247 20.368 30 21.967 30H23.479C24.7333 30.0001 25.9418 29.5287 26.8648 28.6794C27.7878 27.8301 28.3579 26.665 28.462 25.415L28.823 21.083C28.8345 20.9451 28.8172 20.8064 28.7723 20.6755C28.7274 20.5446 28.6559 20.4245 28.5622 20.3227C28.4685 20.2209 28.3546 20.1397 28.2279 20.0841C28.1012 20.0286 27.9644 19.9999 27.826 20H22.5C22.1036 19.9995 21.7235 19.8424 21.4424 19.563C21.1613 19.2835 21.0019 18.9044 20.999 18.508C20.991 17.538 21.052 16.341 20.606 15.448C20.206 14.648 19.832 14.5 19.5 14.5C19.2 14.5 18.96 14.893 18.993 15.163ZM19.5 12.5C20.856 12.5 21.794 13.352 22.395 14.553C22.917 15.598 22.966 16.853 22.992 18H27.826C28.2411 17.9999 28.6516 18.086 29.0317 18.2528C29.4118 18.4195 29.7532 18.6634 30.0342 18.9688C30.3153 19.2743 30.5298 19.6348 30.6644 20.0274C30.799 20.4201 30.8506 20.8364 30.816 21.25L30.455 25.581C30.3093 27.3309 29.5112 28.9621 28.219 30.1511C26.9268 31.3401 25.235 32 23.479 32H21.967C21.0184 32.0027 20.0793 31.8108 19.2077 31.4362C18.3362 31.0616 17.5508 30.5122 16.9 29.822C16.4428 29.9408 15.9723 30.0006 15.5 30C14.392 30 13.472 29.38 12.876 28.392C12.296 27.432 12 26.107 12 24.5C12 22.894 12.297 21.569 12.876 20.609C13.472 19.62 14.392 19 15.5 19C15.781 19 16.079 19.05 16.377 19.134C16.835 17.934 17.161 16.697 17.007 15.399C16.835 13.954 18.016 12.5 19.5 12.5ZM15.696 21.024C15.211 20.924 14.831 21.24 14.589 21.642C14.263 22.182 14 23.106 14 24.5C14 25.894 14.263 26.819 14.588 27.359C14.898 27.871 15.228 28 15.5 28C15.564 28 15.627 27.998 15.69 27.995C15.154 26.787 14.924 25.255 15.002 23.941C15.049 23.136 15.363 22.023 15.696 21.024Z" fill="#FFAE00"/>
</g>
<defs>
<clipPath id="clip0_2360_5259">
<rect width="24" height="24" fill="white" transform="translate(10 10)"/>
</clipPath>
</defs>
</svg>
