<svg width="44" height="44" viewBox="0 0 44 44" fill="none" xmlns="http://www.w3.org/2000/svg">
<rect width="44" height="44" rx="22" fill="#3F9C00" fill-opacity="0.1"/>
<path d="M22 12C21.8 12 21.6 12.1 21.4 12.2L13.5 16.6C13.2 16.8 13 17.1 13 17.5V26.5C13 26.9 13.2 27.2 13.5 27.4L21.4 31.8C21.6 31.9 21.8 32 22 32C22.2 32 22.4 31.9 22.6 31.8L23.5 31.3C23.2 30.7 23.1 30 23 29.3V22.6L29 19.2V23C29.7 23 30.4 23.1 31 23.3V17.5C31 17.1 30.8 16.8 30.5 16.6L22.6 12.2C22.4 12.1 22.2 12 22 12ZM22 14.2L28 17.5L26 18.6L20.1 15.2L22 14.2ZM18.1 16.3L24 19.8L22 20.9L16 17.5L18.1 16.3ZM15 19.2L21 22.6V29.3L15 25.9V19.2ZM31.3 25.8L27.7 29.4L26.1 27.8L25 29L27.8 32L32.6 27.2L31.3 25.8Z" fill="#3F9C00"/>
</svg>
