<svg width="44" height="44" viewBox="0 0 44 44" fill="none" xmlns="http://www.w3.org/2000/svg">
<rect width="44" height="44" rx="22" fill="#BD011A" fill-opacity="0.1"/>
<g clip-path="url(#clip0_2360_5271)">
<path fill-rule="evenodd" clip-rule="evenodd" d="M18.993 28.837C19.162 27.414 18.931 25.93 18.417 24.598C17.848 23.124 17.092 21.528 16.998 19.941C16.919 18.604 17.222 17.022 18.03 15.939C18.915 14.753 20.368 14 21.967 14H23.479C24.7333 14 25.9418 14.4713 26.8648 15.3206C27.7878 16.1699 28.3579 17.3351 28.462 18.585L28.823 22.917C28.8345 23.0549 28.8172 23.1937 28.7723 23.3245C28.7274 23.4554 28.6559 23.5755 28.5622 23.6773C28.4685 23.7791 28.3546 23.8603 28.2279 23.9159C28.1012 23.9714 27.9644 24.0001 27.826 24H22.5C21.669 24 21.005 24.673 20.999 25.492C20.991 26.462 21.052 27.659 20.606 28.552C20.206 29.352 19.832 29.5 19.5 29.5C19.2 29.5 18.96 29.107 18.993 28.837ZM19.5 31.5C20.856 31.5 21.794 30.648 22.395 29.447C22.917 28.403 22.966 27.147 22.992 26H27.826C28.2411 26.0001 28.6516 25.914 29.0317 25.7472C29.4118 25.5805 29.7532 25.3367 30.0342 25.0312C30.3153 24.7257 30.5298 24.3653 30.6644 23.9726C30.799 23.58 30.8506 23.1637 30.816 22.75L30.455 18.419C30.3093 16.6691 29.5112 15.0379 28.219 13.8489C26.9268 12.6599 25.235 12 23.479 12H21.967C21.0183 11.9974 20.0792 12.1895 19.2076 12.5643C18.3361 12.9391 17.5507 13.4886 16.9 14.179C16.4429 14.0596 15.9724 13.9991 15.5 13.999C14.392 13.999 13.472 14.621 12.876 15.609C12.296 16.569 12 17.893 12 19.499C12 21.106 12.297 22.431 12.876 23.391C13.472 24.38 14.392 25 15.5 25C15.781 25 16.079 24.95 16.377 24.866C16.835 26.066 17.161 27.303 17.007 28.601C16.835 30.046 18.016 31.5 19.5 31.5ZM15.696 22.976C15.211 23.076 14.831 22.76 14.589 22.358C14.263 21.818 14 20.894 14 19.5C14 18.106 14.263 17.181 14.588 16.641C14.898 16.129 15.228 16 15.5 16C15.564 16 15.627 16.002 15.69 16.005C15.154 17.213 14.924 18.745 15.002 20.059C15.049 20.864 15.363 21.977 15.696 22.976Z" fill="#BD011A"/>
</g>
<defs>
<clipPath id="clip0_2360_5271">
<rect width="24" height="24" fill="white" transform="translate(10 10)"/>
</clipPath>
</defs>
</svg>
