<svg width="44" height="44" viewBox="0 0 44 44" fill="none" xmlns="http://www.w3.org/2000/svg">
<rect width="44" height="44" rx="22" fill="#DDFFDA"/>
<path d="M27.371 29.827L30.211 27.031L29.585 26.404L27.371 28.587L26.415 27.612L25.788 28.244L27.371 29.827ZM16.77 18.73H27.232V17.73H16.769L16.77 18.73ZM28 32.115C26.886 32.115 25.9407 31.727 25.164 30.951C24.3873 30.175 23.9993 29.2297 24 28.115C24 27.0017 24.388 26.0567 25.164 25.28C25.94 24.5033 26.8853 24.115 28 24.115C29.114 24.115 30.0593 24.5033 30.836 25.28C31.6127 26.0567 32.0007 27.0017 32 28.115C32 29.2297 31.612 30.175 30.836 30.951C30.0587 31.727 29.1133 32.115 28 32.115ZM14 30.77V15.615C14 15.1683 14.1573 14.7873 14.472 14.472C14.7867 14.1573 15.1677 14 15.615 14H28.385C28.8317 14 29.2127 14.1573 29.528 14.472C29.8427 14.7867 30 15.1677 30 15.615V21.56C29.8373 21.5 29.6757 21.4487 29.515 21.406C29.355 21.3633 29.1833 21.33 29 21.306V15.616C29 15.462 28.936 15.3207 28.808 15.192C28.6793 15.064 28.5383 15 28.385 15H15.615C15.4617 15 15.3207 15.064 15.192 15.192C15.064 15.3207 15 15.4617 15 15.615V29.05H21.344C21.3893 29.3233 21.448 29.5907 21.52 29.852C21.5927 30.1133 21.6937 30.3627 21.823 30.6L21.788 30.635L20.654 29.808L19.308 30.769L17.962 29.808L16.615 30.769L15.269 29.808L14 30.77ZM16.77 26.27H21.479C21.5163 26.0867 21.5623 25.915 21.617 25.755C21.6723 25.595 21.7367 25.4333 21.81 25.27H16.77V26.27ZM16.77 22.501H24.08C24.4067 22.243 24.7567 22.028 25.13 21.856C25.5033 21.6833 25.9023 21.565 26.327 21.501H16.769L16.77 22.501Z" fill="#0B9400"/>
</svg>
