<svg width="44" height="44" viewBox="0 0 44 44" fill="none" xmlns="http://www.w3.org/2000/svg">
<rect width="44" height="44" rx="22" fill="#01BBBD" fill-opacity="0.1"/>
<path d="M26 25.76V16.25C26 15.7196 25.7893 15.2109 25.4142 14.8358C25.0391 14.4607 24.5304 14.25 24 14.25H14C13.4696 14.25 12.9609 14.4607 12.5858 14.8358C12.2107 15.2109 12 15.7196 12 16.25V25.25C12 25.5152 12.1054 25.7696 12.2929 25.9571C12.4804 26.1446 12.7348 26.25 13 26.25H13.71C13.9049 25.8049 14.2253 25.4263 14.632 25.1604C15.0387 24.8945 15.5141 24.7529 16 24.7529C16.4859 24.7529 16.9613 24.8945 17.368 25.1604C17.7747 25.4263 18.0951 25.8049 18.29 26.25H25.71C25.783 26.074 25.88 25.909 26 25.76ZM26 25.76C26.2599 25.4075 26.6081 25.1298 27.0096 24.9548C27.4111 24.7799 27.8517 24.714 28.2868 24.7637C28.7219 24.8134 29.1362 24.9769 29.4879 25.2379C29.8396 25.4989 30.1163 25.848 30.29 26.25H32V23.36C32.0004 22.6343 31.8033 21.9223 31.43 21.3L30.2 19.25L29.29 17.74C29.2015 17.5907 29.0757 17.467 28.9249 17.3811C28.7741 17.2952 28.6035 17.25 28.43 17.25H26V25.76Z" stroke="#01BBBD" stroke-width="1.5" stroke-linecap="round" stroke-linejoin="round"/>
<path d="M21 21.25H16M21 18.25H16M18.5 27.25C18.5004 27.6219 18.4179 27.9892 18.2584 28.3252C18.0989 28.6611 17.8664 28.9573 17.578 29.192C17.2895 29.4268 16.9523 29.5942 16.5909 29.6821C16.2296 29.77 15.8531 29.7762 15.4891 29.7002C15.125 29.6242 14.7825 29.4679 14.4865 29.2428C14.1905 29.0176 13.9485 28.7293 13.778 28.3987C13.6076 28.0682 13.513 27.7038 13.5013 27.332C13.4895 26.9603 13.5608 26.5907 13.71 26.25C13.9402 25.7244 14.3442 25.2939 14.8542 25.031C15.3642 24.768 15.9492 24.6884 16.5109 24.8057C17.0726 24.923 17.5769 25.2299 17.9391 25.675C18.3013 26.1201 18.4993 26.6762 18.5 27.25ZM30.5 27.25C30.5004 27.6219 30.4179 27.9892 30.2584 28.3252C30.0989 28.6611 29.8664 28.9573 29.578 29.192C29.2895 29.4268 28.9523 29.5942 28.5909 29.6821C28.2296 29.77 27.8531 29.7762 27.4891 29.7002C27.125 29.6242 26.7825 29.4679 26.4865 29.2428C26.1905 29.0176 25.9485 28.7293 25.778 28.3987C25.6076 28.0682 25.513 27.7038 25.5013 27.332C25.4895 26.9603 25.5608 26.5907 25.71 26.25C25.783 26.074 25.88 25.909 26 25.76C26.2599 25.4075 26.6081 25.1298 27.0096 24.9548C27.4111 24.7799 27.8517 24.714 28.2868 24.7637C28.7219 24.8134 29.1362 24.9769 29.4879 25.2379C29.8396 25.4989 30.1163 25.848 30.29 26.25C30.43 26.565 30.502 26.906 30.5 27.25Z" stroke="#01BBBD" stroke-width="1.5" stroke-linecap="round" stroke-linejoin="round"/>
</svg>
