<svg width="18" height="20" viewBox="0 0 18 20" fill="none" xmlns="http://www.w3.org/2000/svg">
<g clip-path="url(#clip0_2456_5714)">
<path d="M17.2374 4.24107C17.4458 4.4494 17.6243 4.73214 17.7732 5.08929C17.922 5.44643 17.9964 5.77381 17.9964 6.07143V18.9286C17.9964 19.2262 17.8922 19.4792 17.6839 19.6875C17.4755 19.8958 17.2226 20 16.9249 20H1.92494C1.62733 20 1.37435 19.8958 1.16602 19.6875C0.957682 19.4792 0.853516 19.2262 0.853516 18.9286V1.07143C0.853516 0.77381 0.957682 0.520833 1.16602 0.3125C1.37435 0.104167 1.62733 0 1.92494 0H11.9249C12.2226 0 12.5499 0.0744048 12.9071 0.223214C13.2642 0.372024 13.547 0.550595 13.7553 0.758929L17.2374 4.24107ZM12.2821 1.51786V5.71429H16.4785C16.4041 5.49851 16.3223 5.34598 16.233 5.2567L12.7397 1.76339C12.6504 1.67411 12.4979 1.59226 12.2821 1.51786ZM16.5678 18.5714V7.14286H11.9249C11.6273 7.14286 11.3743 7.03869 11.166 6.83036C10.9577 6.62202 10.8535 6.36905 10.8535 6.07143V1.42857H2.28209V18.5714H16.5678ZM10.8312 11.9531C11.0767 12.1466 11.3892 12.3549 11.7687 12.5781C12.2077 12.526 12.6429 12.5 13.0745 12.5C14.1682 12.5 14.8267 12.6823 15.0499 13.0469C15.169 13.2106 15.1764 13.404 15.0723 13.6272C15.0723 13.6347 15.0685 13.6421 15.0611 13.6496L15.0388 13.6719V13.683C14.9941 13.9658 14.73 14.1071 14.2464 14.1071C13.8892 14.1071 13.4614 14.0327 12.9629 13.8839C12.4644 13.7351 11.9807 13.5379 11.512 13.2924C9.86765 13.471 8.40932 13.7798 7.137 14.2188C5.9986 16.1682 5.09831 17.1429 4.4361 17.1429C4.3245 17.1429 4.22033 17.1168 4.1236 17.0647L3.85575 16.9308C3.84831 16.9234 3.82599 16.9048 3.78878 16.875C3.71438 16.8006 3.69206 16.6667 3.72182 16.4732C3.78878 16.1756 3.99712 15.8352 4.34682 15.452C4.69652 15.0688 5.18759 14.7098 5.82003 14.375C5.9242 14.308 6.00977 14.3304 6.07673 14.442C6.09161 14.4568 6.09905 14.4717 6.09905 14.4866C6.48596 13.8542 6.88402 13.1213 7.29325 12.2879C7.7992 11.276 8.1861 10.3013 8.45396 9.36384C8.27539 8.75372 8.16192 8.16034 8.11356 7.58371C8.0652 7.00707 8.08938 6.53274 8.1861 6.16071C8.26795 5.8631 8.4242 5.71429 8.65485 5.71429H8.90039C9.07152 5.71429 9.20173 5.77009 9.29101 5.8817C9.42494 6.03795 9.45843 6.29092 9.39146 6.64062C9.37658 6.68527 9.3617 6.71503 9.34682 6.72991C9.35426 6.75223 9.35798 6.78199 9.35798 6.8192V7.15402C9.3431 8.0692 9.29101 8.78348 9.20173 9.29688C9.61096 10.5171 10.1541 11.4025 10.8312 11.9531ZM4.40262 16.5402C4.78953 16.3616 5.2992 15.7738 5.93164 14.7768C5.55218 15.0744 5.22666 15.3869 4.95508 15.7143C4.6835 16.0417 4.49935 16.317 4.40262 16.5402ZM8.84459 6.27232C8.73298 6.58482 8.72554 7.07589 8.82227 7.74554C8.82971 7.69345 8.85575 7.52976 8.90039 7.25446C8.90039 7.23214 8.92643 7.07217 8.97851 6.77455C8.98596 6.74479 9.00084 6.71503 9.02316 6.68527C9.01572 6.67783 9.012 6.67039 9.012 6.66295C9.00456 6.64807 9.00084 6.6369 9.00084 6.62946C8.9934 6.46577 8.94503 6.33185 8.85575 6.22768C8.85575 6.23512 8.85203 6.24256 8.84459 6.25V6.27232ZM7.46066 13.6496C8.46512 13.2478 9.52167 12.9464 10.6303 12.7455C10.6154 12.7381 10.5671 12.7028 10.4852 12.6395C10.4034 12.5763 10.3438 12.526 10.3066 12.4888C9.74116 11.9903 9.26869 11.3356 8.88923 10.5246C8.68834 11.1644 8.37956 11.8973 7.96289 12.7232C7.73968 13.1399 7.57227 13.4487 7.46066 13.6496ZM14.6705 13.471C14.4919 13.2924 13.9711 13.2031 13.108 13.2031C13.6735 13.4115 14.1348 13.5156 14.4919 13.5156C14.5961 13.5156 14.663 13.5119 14.6928 13.5045C14.6928 13.497 14.6854 13.4859 14.6705 13.471Z" fill="black"/>
</g>
<defs>
<clipPath id="clip0_2456_5714">
<rect width="17.15" height="20" fill="white" transform="translate(0.849609)"/>
</clipPath>
</defs>
</svg>
