<svg width="44" height="44" viewBox="0 0 44 44" fill="none" xmlns="http://www.w3.org/2000/svg">
<rect width="44" height="44" rx="22" fill="#FFAE00" fill-opacity="0.1"/>
<path d="M12.8776 11.1902C14.4015 12.7342 15.4281 14.5258 16.2484 16.3047C16.4781 15.7422 16.5906 15.2641 17.1344 14.7906C19.3375 16.0328 19.9609 16.8203 20.1531 18.5594H23.2844C23.3687 16.8719 23.6406 15.9203 24.9953 14.6777C25.7406 15.2594 25.9328 15.9391 26.3125 16.5859C26.7109 14.7625 28.0609 12.7759 29.9078 11.8098C27.4469 11.268 24.8219 11.7897 22.7219 12.632C23.1578 12.9316 23.7859 13.1584 23.9828 13.5461C23.0922 14.005 22.1312 15.5312 21.5828 16.7969C20.9219 15.6203 19.5437 14.2919 18.2078 13.6262C18.7469 13.0834 19.2859 12.8861 19.825 12.5533C18.2781 11.6922 15.5078 11.2656 12.8776 11.1902ZM13.2925 19.4031L11.3589 24.5594H16.4594L18.3906 19.4031H13.2925ZM19.6094 19.4031L21.5406 24.5594H32.6406L30.7094 19.4031H19.6094ZM18.5781 21.3062L17.0406 25.4031H13.4219V32.8094H18.5781V21.3062ZM19.4219 21.3062V32.8094H30.5781V25.4031H20.9594L19.4219 21.3062Z" fill="#FFAE00"/>
</svg>
