<svg width="24" height="24" viewBox="0 0 24 24" fill="none" xmlns="http://www.w3.org/2000/svg">
<g clip-path="url(#clip0_2067_3558)">
<path d="M12 23.1431C18.154 23.1431 23.1428 18.1543 23.1428 12.0003C23.1428 5.84625 18.154 0.857422 12 0.857422C5.84594 0.857422 0.857117 5.84625 0.857117 12.0003C0.857117 18.1543 5.84594 23.1431 12 23.1431Z" stroke="black" stroke-width="1.71429" stroke-linecap="round" stroke-linejoin="round"/>
<path d="M9.42859 9.42885C9.42859 8.92027 9.5794 8.42311 9.86195 8.00024C10.1445 7.57737 10.5461 7.24779 11.016 7.05316C11.4858 6.85854 12.0029 6.80761 12.5017 6.90683C13.0005 7.00605 13.4587 7.25096 13.8183 7.61058C14.1779 7.9702 14.4228 8.42838 14.522 8.92719C14.6213 9.426 14.5703 9.94303 14.3757 10.4129C14.1811 10.8828 13.8515 11.2844 13.4286 11.5669C13.0058 11.8495 12.5086 12.0003 12 12.0003V13.7146" stroke="black" stroke-width="1.71429" stroke-linecap="round" stroke-linejoin="round"/>
<path d="M12 16.2852C11.7457 16.2852 11.4971 16.3606 11.2857 16.5018C11.0743 16.6431 10.9095 16.8439 10.8122 17.0788C10.7149 17.3138 10.6894 17.5723 10.739 17.8217C10.7886 18.0711 10.9111 18.3002 11.0909 18.48C11.2707 18.6598 11.4998 18.7823 11.7492 18.8319C11.9986 18.8815 12.2571 18.856 12.492 18.7587C12.727 18.6614 12.9278 18.4966 13.069 18.2852C13.2103 18.0737 13.2857 17.8252 13.2857 17.5709C13.2813 17.2313 13.1444 16.9068 12.9042 16.6666C12.6641 16.4265 12.3396 16.2896 12 16.2852Z" fill="black"/>
</g>
<defs>
<clipPath id="clip0_2067_3558">
<rect width="24" height="24" fill="white"/>
</clipPath>
</defs>
</svg>
