<svg width="20" height="20" viewBox="0 0 36 36" fill="none" xmlns="http://www.w3.org/2000/svg">
<path fill-rule="evenodd" clip-rule="evenodd" d="M15.045 9.70499C15.2557 9.91592 15.374 10.2019 15.374 10.5C15.374 10.7981 15.2557 11.084 15.045 11.295L9.46499 16.875H21.75C23.1795 16.875 25.3005 17.295 27.0945 18.5865C28.947 19.9215 30.375 22.134 30.375 25.5C30.375 25.7984 30.2565 26.0845 30.0455 26.2955C29.8345 26.5065 29.5484 26.625 29.25 26.625C28.9516 26.625 28.6655 26.5065 28.4545 26.2955C28.2435 26.0845 28.125 25.7984 28.125 25.5C28.125 22.866 27.0525 21.33 25.7805 20.4135C24.45 19.455 22.8195 19.125 21.75 19.125H9.46499L15.045 24.705C15.1555 24.808 15.2442 24.9322 15.3057 25.0702C15.3671 25.2082 15.4002 25.3571 15.4029 25.5082C15.4055 25.6593 15.3778 25.8093 15.3212 25.9494C15.2646 26.0895 15.1804 26.2167 15.0735 26.3235C14.9667 26.4304 14.8395 26.5146 14.6994 26.5712C14.5593 26.6278 14.4093 26.6555 14.2582 26.6529C14.1071 26.6502 13.9582 26.6171 13.8202 26.5557C13.6822 26.4942 13.558 26.4055 13.455 26.295L5.95499 18.795C5.74431 18.584 5.62598 18.2981 5.62598 18C5.62598 17.7019 5.74431 17.4159 5.95499 17.205L13.455 9.70499C13.6659 9.49431 13.9519 9.37598 14.25 9.37598C14.5481 9.37598 14.834 9.49431 15.045 9.70499Z" fill="black"/>
</svg>
