<svg width="60" height="60" viewBox="0 0 60 60" fill="none" xmlns="http://www.w3.org/2000/svg">
<rect width="60" height="60" rx="30" fill="#50B848"/>
<g clip-path="url(#clip0_2987_8594)">
<path d="M40.2932 22.1075C40.8332 20.6137 39.3857 19.1662 37.8919 19.7075L19.6357 26.31C18.1369 26.8525 17.9557 28.8975 19.3344 29.6962L25.1619 33.07L30.3657 27.8662C30.6014 27.6385 30.9172 27.5126 31.2449 27.5154C31.5727 27.5182 31.8862 27.6497 32.118 27.8815C32.3497 28.1132 32.4812 28.4267 32.484 28.7545C32.4869 29.0822 32.3609 29.398 32.1332 29.6337L26.9294 34.8375L30.3044 40.665C31.1019 42.0437 33.1469 41.8612 33.6894 40.3637L40.2932 22.1075Z" fill="white"/>
</g>
<defs>
<clipPath id="clip0_2987_8594">
<rect width="30" height="30" fill="white" transform="translate(15 15)"/>
</clipPath>
</defs>
</svg>
