<svg width="25" height="25" viewBox="0 0 25 25" fill="none" xmlns="http://www.w3.org/2000/svg">
<path d="M12.25 15.5C13.9069 15.5 15.25 14.1569 15.25 12.5C15.25 10.8431 13.9069 9.5 12.25 9.5C10.5931 9.5 9.25 10.8431 9.25 12.5C9.25 14.1569 10.5931 15.5 12.25 15.5Z" stroke="white" stroke-width="1.5"/>
<path d="M14.015 2.652C13.648 2.5 13.182 2.5 12.25 2.5C11.318 2.5 10.852 2.5 10.485 2.652C10.2421 2.75251 10.0215 2.8999 9.83569 3.08572C9.64986 3.27155 9.50248 3.49218 9.40196 3.735C9.30996 3.958 9.27296 4.219 9.25896 4.598C9.25273 4.87199 9.17696 5.1399 9.03877 5.37657C8.90059 5.61324 8.70451 5.81091 8.46896 5.951C8.22986 6.08504 7.96061 6.1561 7.6865 6.1575C7.41239 6.1589 7.14242 6.09059 6.90196 5.959C6.56596 5.781 6.32296 5.683 6.08196 5.651C5.55628 5.58187 5.02466 5.72431 4.60396 6.047C4.28996 6.29 4.05596 6.693 3.58996 7.5C3.12396 8.307 2.88996 8.71 2.83896 9.105C2.8046 9.36545 2.82188 9.63012 2.88983 9.88389C2.95778 10.1377 3.07505 10.3756 3.23496 10.584C3.38296 10.776 3.58996 10.937 3.91096 11.139C4.38396 11.436 4.68796 11.942 4.68796 12.5C4.68796 13.058 4.38396 13.564 3.91096 13.86C3.58996 14.063 3.38196 14.224 3.23496 14.416C3.07505 14.6244 2.95778 14.8623 2.88983 15.1161C2.82188 15.3699 2.8046 15.6345 2.83896 15.895C2.89096 16.289 3.12396 16.693 3.58896 17.5C4.05596 18.307 4.28896 18.71 4.60396 18.953C4.8124 19.1129 5.0503 19.2302 5.30407 19.2981C5.55784 19.3661 5.82251 19.3834 6.08296 19.349C6.32296 19.317 6.56596 19.219 6.90196 19.041C7.14242 18.9094 7.41239 18.8411 7.6865 18.8425C7.96061 18.8439 8.22986 18.915 8.46896 19.049C8.95196 19.329 9.23896 19.844 9.25896 20.402C9.27296 20.782 9.30896 21.042 9.40196 21.265C9.50248 21.5078 9.64986 21.7284 9.83569 21.9143C10.0215 22.1001 10.2421 22.2475 10.485 22.348C10.852 22.5 11.318 22.5 12.25 22.5C13.182 22.5 13.648 22.5 14.015 22.348C14.2578 22.2475 14.4784 22.1001 14.6642 21.9143C14.8501 21.7284 14.9974 21.5078 15.098 21.265C15.19 21.042 15.227 20.782 15.241 20.402C15.261 19.844 15.548 19.328 16.031 19.049C16.2701 18.915 16.5393 18.8439 16.8134 18.8425C17.0875 18.8411 17.3575 18.9094 17.598 19.041C17.934 19.219 18.177 19.317 18.417 19.349C18.6774 19.3834 18.9421 19.3661 19.1959 19.2981C19.4496 19.2302 19.6875 19.1129 19.896 18.953C20.211 18.711 20.444 18.307 20.91 17.5C21.376 16.693 21.61 16.29 21.661 15.895C21.6953 15.6345 21.678 15.3699 21.6101 15.1161C21.5421 14.8623 21.4249 14.6244 21.265 14.416C21.117 14.224 20.91 14.063 20.589 13.861C20.3547 13.7186 20.1605 13.519 20.0246 13.2809C19.8886 13.0428 19.8155 12.7741 19.812 12.5C19.812 11.942 20.116 11.436 20.589 11.14C20.91 10.937 21.118 10.776 21.265 10.584C21.4249 10.3756 21.5421 10.1377 21.6101 9.88389C21.678 9.63012 21.6953 9.36545 21.661 9.105C21.609 8.711 21.376 8.307 20.911 7.5C20.444 6.693 20.211 6.29 19.896 6.047C19.6875 5.88709 19.4496 5.76981 19.1959 5.70187C18.9421 5.63392 18.6774 5.61664 18.417 5.651C18.177 5.683 17.934 5.781 17.597 5.959C17.3566 6.09042 17.0868 6.15862 16.8129 6.15722C16.539 6.15582 16.2699 6.08486 16.031 5.951C15.7954 5.81091 15.5993 5.61324 15.4612 5.37657C15.323 5.1399 15.2472 4.87199 15.241 4.598C15.227 4.218 15.191 3.958 15.098 3.735C14.9974 3.49218 14.8501 3.27155 14.6642 3.08572C14.4784 2.8999 14.2578 2.75251 14.015 2.652Z" stroke="white" stroke-width="1.5"/>
</svg>
