<svg width="24" height="24" viewBox="0 0 24 24" fill="none" xmlns="http://www.w3.org/2000/svg">
<path d="M12.4815 5.30598L13.9297 10.0743V10.51H14.4297H18.8797C19.3607 10.51 19.5662 11.1255 19.168 11.4139C19.1677 11.4141 19.1674 11.4143 19.1672 11.4145L15.5291 14.0131L15.2351 14.2231L15.3422 14.5681L16.7722 19.1781L16.7724 19.1788C16.9165 19.6412 16.3782 20.0177 15.9938 19.7231L15.9926 19.7222L12.3026 16.9122L12.0003 16.6819L11.6975 16.9117L8.00747 19.7117L8.00561 19.7131C7.62119 20.0077 7.08289 19.6312 7.22705 19.1688L7.22727 19.1681L8.65727 14.5581L8.76429 14.2131L8.47033 14.0031L4.83034 11.4031L4.82887 11.4021C4.43934 11.126 4.6335 10.5 5.11971 10.5H9.56971H9.93968L10.0479 10.1462L11.5279 5.30621L11.5279 5.30622L11.5293 5.30136C11.6659 4.83788 12.333 4.81967 12.4815 5.30598Z" stroke="#606880"/>
</svg>
