<svg width="46" height="46" viewBox="0 0 46 46" fill="none" xmlns="http://www.w3.org/2000/svg">
<g clip-path="url(#clip0_1_661)">
<path fill-rule="evenodd" clip-rule="evenodd" d="M22.5765 35.1619C22.5909 35.0105 22.6893 34.8702 22.7655 34.8106C22.8954 34.7089 22.9543 34.676 23.1561 34.6481L23.072 34.7014C22.9026 34.8071 22.7223 34.945 22.615 35.117C22.6015 35.1388 22.597 35.149 22.5765 35.1619ZM26.736 28.1905L26.7384 28.1825C27.1065 28.2015 27.6305 28.4258 27.9753 28.5852C28.0241 28.6078 28.0917 28.648 28.1384 28.6636C28.0967 28.5665 27.8593 28.3803 27.7614 28.3131C27.5509 28.1684 27.3369 28.1054 27.282 28.0702C27.6475 28.0872 28.0461 28.1953 28.3727 28.3411C28.4308 28.367 28.6447 28.4723 28.6704 28.5076L28.5588 28.6104C28.3069 28.8546 27.8863 29.0371 27.5462 29.1242C27.3042 29.1863 27.2444 29.0627 27.1345 28.9303C27.0487 28.827 26.914 28.6903 26.8115 28.6054C26.7234 28.5323 26.5456 28.4822 26.5298 28.461C26.5424 28.4672 26.6475 28.4735 26.678 28.4786C26.9476 28.5231 27.189 28.661 27.408 28.8099C27.4424 28.8333 27.4793 28.8633 27.5119 28.8804C27.4927 28.7943 27.2471 28.5458 27.1767 28.4798C27.1113 28.4184 27.0516 28.3737 26.9728 28.3199C26.928 28.2893 26.7857 28.2028 26.7361 28.1905H26.736ZM21.1485 26.1885L21.1579 26.1967C21.1115 26.2324 21.07 26.2686 21.0244 26.3074C20.9782 26.3465 20.9405 26.3899 20.8968 26.4258C20.8275 26.4826 20.7009 26.6683 20.6696 26.682C20.6148 26.706 20.2763 26.689 20.2062 26.6812C19.8355 26.6394 19.4586 26.4839 19.338 26.0976C19.2888 25.9401 19.278 25.527 19.1712 25.4004C19.1442 25.3682 19.1332 25.3735 19.0993 25.352L19.0299 25.354L19.0139 25.363C18.9102 25.4223 18.8965 25.5684 18.8639 25.7075C18.8298 25.853 18.8006 25.998 18.7918 26.1556C18.7489 26.9316 19.35 27.3561 20.0263 27.5377C20.1195 27.5628 20.3636 27.6364 20.4465 27.6403C20.4408 27.4185 20.4797 27.1884 20.5617 27.0144C20.6557 26.8148 20.7213 26.7137 20.9402 26.6339C21.128 26.5654 21.3154 26.4939 21.5034 26.4272C21.6846 26.3629 21.8887 26.2692 22.0677 26.2222C22.0509 26.2514 22.0289 26.2755 22.0087 26.3034C21.8989 26.4538 21.838 26.5964 21.7249 26.7232C21.6986 26.7529 21.682 26.765 21.6507 26.7905C21.6351 26.8031 21.5716 26.8395 21.567 26.8491C21.6888 26.8195 21.8353 26.7625 21.962 26.7226C22.3066 26.6143 22.6119 26.5555 22.9227 26.3634C22.9739 26.3317 23.0318 26.2831 23.081 26.2601C23.0635 26.3052 22.9077 26.4714 22.8782 26.5021C22.5155 26.8797 22.0965 26.9838 22.0368 27.0271C22.1533 27.031 22.3509 27.0009 22.4664 26.9819C22.769 26.9323 23.0726 26.8417 23.3261 26.6721C23.3655 26.6457 23.4293 26.5932 23.4642 26.5768C23.4753 26.6821 23.4841 26.8518 23.4707 26.9555C23.4565 27.064 23.4169 27.1668 23.399 27.2733C23.4495 27.248 23.5412 27.1547 23.5758 27.118C23.6662 27.0224 23.7774 26.8462 23.8262 26.7173L23.9072 26.4766C23.9791 26.5564 24.0225 26.7024 24.2601 26.807C24.3389 26.8416 24.4357 26.8647 24.5298 26.8722C24.5936 26.8773 24.8509 26.8604 24.8739 26.8703C24.9181 26.8898 24.9624 27.0585 24.9795 27.111C25.093 27.4601 25.137 27.5561 25.1843 27.9593C25.0521 27.9713 25.0127 27.9508 24.8948 28.0168C24.7366 28.1054 24.5392 28.4477 24.4607 28.6134C24.1882 29.1892 24.0972 29.9772 24.1092 30.6314C24.1114 30.7486 24.107 30.8606 24.1203 30.9779C24.1436 31.1839 24.2435 31.3266 24.3402 31.4571C24.4012 31.5395 24.5929 31.7932 24.631 31.8616C24.6293 31.8612 24.4395 31.7712 24.365 31.7451C24.2661 31.7103 24.1697 31.6845 24.0621 31.6675C23.6708 31.6056 22.9924 31.6272 22.6018 31.6953C22.5016 31.7128 22.3843 31.7444 22.2905 31.7764C22.2015 31.8068 22.0403 31.8822 22.0124 31.8908C22.0488 31.7574 22.1406 31.6615 22.1842 31.4001C22.2207 31.1808 22.1853 30.9948 22.1658 30.7757C22.1289 30.3603 22.0958 29.968 21.992 29.5806C21.877 29.1516 21.6682 28.6586 21.3881 28.3275C21.3699 28.3061 21.3211 28.2533 21.304 28.24C21.1964 28.1574 21.126 28.0995 20.9707 28.0801C20.9132 28.0729 20.87 28.0818 20.8193 28.0789C20.851 27.7355 20.8796 27.5504 20.9656 27.2296C20.9879 27.1463 21.027 27.0433 21.0396 26.9631C20.9914 26.9915 20.8774 27.1965 20.8466 27.2622C20.7919 27.3788 20.7462 27.4865 20.7057 27.6142C20.6385 27.8258 20.5505 28.3462 20.4996 28.6223C20.4883 28.6832 20.4585 28.7626 20.4539 28.8162C20.4345 29.0402 20.6586 28.9001 20.7893 28.9228C21.0146 28.962 21.2476 29.272 21.2368 29.4697C21.2138 29.4425 21.1665 29.3311 21.1388 29.2886C21.0911 29.2156 21.0632 29.1937 21.0097 29.1414C20.9214 29.055 20.7489 28.9959 20.6059 29.0768C20.442 29.1695 20.2992 29.4267 20.2053 29.5021C20.1248 29.5668 20.0947 29.55 19.9882 29.5503C20.1111 29.7279 20.358 29.5443 20.4163 29.5301C20.427 29.735 20.5122 29.9091 20.4657 30.0453C20.4448 30.1069 20.4024 30.1812 20.3752 30.2423C19.9384 31.2263 19.7571 32.3962 20.0259 33.461C20.1812 34.0759 20.4943 34.6457 20.8106 35.0674C20.8981 35.1839 20.984 35.2911 21.0726 35.3954C21.2151 35.5629 21.4863 35.8499 21.6542 35.9988C21.7347 36.0703 21.809 36.1505 21.8993 36.1995C21.941 36.2221 21.9656 36.2226 22.0046 36.2382L22.1087 36.2353C22.1103 36.2341 22.113 36.2306 22.1139 36.2322L22.2232 36.1742C22.2583 36.1498 22.2862 36.1207 22.3131 36.0924C22.4274 35.9726 22.7229 35.6424 22.8335 35.563C23.1287 35.3509 23.5099 35.4752 23.8798 35.1904C24.1758 34.9626 24.1658 34.7656 24.2555 34.5238C24.2874 34.4379 24.3199 34.361 24.3662 34.2884C24.4032 34.2302 24.4681 34.1352 24.5196 34.0929C24.5845 34.0396 24.6203 33.9645 24.6851 33.9089C24.8271 33.7873 25.1781 33.7525 25.2836 33.4528C25.3624 33.2289 25.228 33.0639 25.1575 32.9217C25.1184 32.8427 25.0783 32.7676 25.0391 32.6868C24.9727 32.55 25.0079 32.5453 25.0746 32.4447C25.1221 32.3729 25.1699 32.3085 25.2171 32.2392C25.5222 31.7915 25.5048 31.7063 25.4499 31.1335C25.4277 30.9013 25.3868 30.7238 25.4148 30.485C25.4267 30.3834 25.4477 30.2966 25.4779 30.2047C25.5064 30.1179 25.5471 30.045 25.5797 29.9606C25.6407 29.8029 25.6968 29.5616 25.6939 29.3871C25.7569 29.4014 25.816 29.4393 25.892 29.4545C25.9614 29.4682 26.0581 29.4522 26.0946 29.3864C25.9136 29.3793 25.9171 29.3936 25.7565 29.2007C25.6766 29.1048 25.5967 29.0084 25.4756 28.9457C25.2542 28.831 25.0727 28.9775 24.9604 29.1508C24.925 29.2054 24.8886 29.2622 24.8577 29.3146C24.8407 29.265 24.9058 29.1373 24.9283 29.0912C24.996 28.9522 25.1046 28.8275 25.265 28.7944C25.3634 28.7742 25.4952 28.8275 25.5531 28.7979C25.6711 28.7379 25.5113 28.4481 25.4765 28.3172C25.377 27.9425 25.4103 27.7318 25.2009 27.3057C25.1393 27.1804 25.039 27.0007 24.9566 26.9128C24.8404 26.7888 24.7476 26.8362 24.5464 26.6954C24.4445 26.624 24.3143 26.4926 24.248 26.3612C24.2903 26.3634 24.6502 26.4485 24.7408 26.4661C24.9511 26.507 25.022 26.4847 25.196 26.6215C25.2841 26.6907 25.3918 26.855 25.442 26.9975C25.4948 27.1478 25.5229 27.3397 25.5651 27.5008L25.96 27.3649C26.2844 27.2428 26.4665 27.1788 26.7216 26.94L26.8508 26.8013C27.152 26.4281 27.1866 25.9462 27.0133 25.4737C26.9914 25.4141 26.9297 25.2375 26.8956 25.1914C26.8649 25.1499 26.8616 25.1615 26.8201 25.1346L26.7391 25.137C26.7084 25.1654 26.6913 25.1644 26.669 25.2034C26.6407 25.2528 26.6071 25.4469 26.5986 25.5052C26.5753 25.6646 26.5913 25.7995 26.542 25.9522C26.4114 26.3564 25.9797 26.5065 25.5846 26.5462C25.2228 26.5826 25.2813 26.5738 25.1055 26.4029C25.08 26.3781 25.0619 26.369 25.0368 26.3456C24.9124 26.229 24.7415 26.1191 24.5719 26.0555C24.4205 25.9987 24.3135 25.9902 24.1388 25.985C23.8736 25.9769 23.6604 25.8005 23.4345 25.6723C23.0741 25.4678 22.6537 25.3365 22.2137 25.3888C21.9943 25.4148 21.6083 25.5275 21.4488 25.6587L21.6511 25.6338C21.8882 25.5998 21.9519 25.6311 22.1666 25.68C22.2595 25.7012 22.2364 25.6893 22.2373 25.7184C22.2143 25.727 22.0551 25.7154 22.0087 25.7168C21.7825 25.7238 21.5819 25.7434 21.3743 25.8343C21.2439 25.8913 21.1627 25.95 21.0699 26.0253C21.0239 26.0626 20.867 26.2205 20.8733 26.3124L21.1485 26.1893V26.1885ZM23.2554 31.367C23.1547 31.3698 22.9317 31.422 22.8932 31.4838L23.6901 31.4618L23.7245 31.4587C23.6635 31.3991 23.462 31.3612 23.3521 31.3643L23.2554 31.367ZM22.7818 31.2429C22.8241 31.2326 22.8664 31.212 22.9115 31.1973C23.045 31.1536 23.2005 31.1199 23.3451 31.1158C23.5958 31.1086 23.6736 31.1433 23.8983 31.1898C23.8541 31.1421 23.7231 31.0826 23.6446 31.0579C23.4338 30.9914 23.2124 30.9969 23.0123 31.09C22.9406 31.1233 22.815 31.1949 22.7818 31.2431V31.2429ZM23.2411 30.15C23.1954 29.3811 23.2031 28.8888 23.3703 28.0965C23.3846 28.0289 23.4079 27.9507 23.417 27.8874C23.3513 27.9658 23.2668 28.2386 23.2343 28.3667C23.106 28.8744 23.0649 29.5719 23.2129 30.089C23.2285 30.1433 23.2233 30.1406 23.2412 30.1501L23.2411 30.15ZM21.8134 27.5734L21.8399 27.5889C21.846 27.5911 21.8622 27.5946 21.8696 27.5966C21.8911 27.6021 21.9062 27.6064 21.9262 27.6117C21.9683 27.6229 21.9995 27.6332 22.0382 27.647C22.4233 27.7848 22.5687 28.0934 22.7324 28.4673C22.7644 28.5404 22.7977 28.6066 22.8257 28.6833C22.8441 28.7334 22.8845 28.8826 22.903 28.9131C22.9212 28.8663 22.8314 28.473 22.8114 28.3998C22.7326 28.1114 22.5824 27.7944 22.3168 27.6509C22.1403 27.5554 22.0341 27.5508 21.8134 27.5734ZM22.2922 32.4307C22.2949 32.4299 22.2976 32.4286 22.3073 32.4291C22.3113 32.4294 22.319 32.4311 22.3231 32.4324L22.4073 32.4742C22.4435 32.4946 22.4779 32.5112 22.5133 32.5308C22.5866 32.5713 22.6572 32.6081 22.729 32.6474C22.8956 32.7384 23.0005 32.8739 22.9453 33.0757C22.8556 33.4038 22.44 33.3816 22.3753 33.5153C22.3272 33.6151 22.3984 33.6922 22.5016 33.6891L24.1018 33.644C24.193 33.6416 24.1956 33.6501 24.2563 33.6048C24.2937 33.5769 24.3135 33.5441 24.291 33.4852C24.2292 33.3236 23.7956 33.3741 23.6918 33.0617C23.6612 32.9698 23.662 32.866 23.7007 32.7828C23.738 32.7027 23.8038 32.6696 23.8785 32.6182C23.9276 32.5844 24.2739 32.3688 24.309 32.3694C24.3079 32.4043 24.1964 32.4859 24.1694 32.5089C24.119 32.552 24.0715 32.5909 24.0192 32.6347C23.9055 32.73 23.774 32.8113 23.7771 32.9489C23.7847 33.2728 24.3472 33.2488 24.4138 32.929C24.4457 32.7764 24.4671 32.613 24.4911 32.4585C24.5208 32.2679 24.4411 32.1453 24.2461 32.1646C24.2013 32.169 23.9104 32.2911 23.8372 32.3178C23.5889 32.4083 23.4854 32.424 23.2406 32.4309C22.8233 32.4427 22.4774 32.2139 22.3037 32.2193L22.2962 32.2195C21.9965 32.2287 22.1362 32.6214 22.1737 32.7977C22.1977 32.9104 22.2205 33.0279 22.2809 33.1057C22.402 33.2613 22.7524 33.2918 22.8384 33.0543C22.9082 32.8612 22.7308 32.7818 22.6156 32.6983L22.3908 32.522C22.3571 32.4944 22.2898 32.4526 22.2921 32.4307H22.2922ZM26.1831 28.7441C26.334 28.711 26.4976 28.6409 26.6787 28.7765C26.7848 28.8559 26.874 29.0028 26.9046 29.1863C26.9032 29.1848 26.9012 29.1802 26.9007 29.1814L26.8901 29.1664C26.8219 29.0542 26.7946 28.9648 26.6397 28.8633C26.4348 28.729 26.2433 28.7694 26.1831 28.7441ZM27.6167 27.8532C27.7652 27.8417 28.128 27.9255 28.2652 27.9721C28.4724 28.0425 28.6963 28.1216 28.7017 28.3427L28.7029 28.4002C28.6505 28.3639 28.6019 28.3006 28.4814 28.2182C28.2699 28.074 28.0283 27.9683 27.7756 27.8995C27.7269 27.8861 27.6593 27.8759 27.6167 27.8532ZM29.3171 28.1518L29.3118 27.9625C29.2945 27.9344 29.2847 27.8727 29.2703 27.8359C29.2549 27.7968 29.233 27.7558 29.2108 27.7229C29.0748 27.5217 28.8572 27.3936 28.6127 27.3057C28.245 27.1735 27.8515 27.1414 27.4282 27.2031C27.0455 27.259 26.7159 27.4136 26.4464 27.5998C26.2584 27.7298 26.2166 27.8201 26.0017 27.8402C25.714 27.8673 25.6171 27.7046 25.5339 27.6461C25.4821 27.7372 25.4813 27.9249 25.5074 28.0303C25.5387 28.1559 25.6045 28.2432 25.6427 28.3626C25.7074 28.5658 25.7307 29.0609 25.7721 29.1682C25.8149 29.2796 26.004 29.1695 26.4076 29.4384C27.0619 29.8742 27.9679 29.5604 28.5113 29.1816C28.728 29.0304 28.9044 28.8768 29.0467 28.6879C29.0661 28.6621 29.0792 28.6456 29.0976 28.6203C29.1872 28.4969 29.2753 28.3544 29.3046 28.1992L29.3171 28.1518ZM19.1984 29.371C19.2023 29.3081 19.2377 29.1911 19.2619 29.1394C19.3274 28.9988 19.4489 28.8971 19.6099 28.8865C19.6877 28.8814 19.8193 28.8917 19.874 28.9273C19.5887 28.9428 19.3778 29.0312 19.2453 29.2762C19.2302 29.3041 19.2168 29.3458 19.1984 29.371ZM17.9274 28.9462L18.2286 28.779C18.3286 28.7258 18.4383 28.6713 18.5477 28.6243C18.7533 28.5361 19.0343 28.4255 19.2705 28.391L19.0504 28.5416C18.9886 28.5907 18.9064 28.6583 18.8572 28.7139C18.7633 28.8197 18.5915 29.0142 18.5502 29.1451C18.5879 29.1267 18.8392 28.9254 18.9553 28.8573C19.0864 28.7804 19.2873 28.6799 19.4708 28.6792C19.3847 28.7293 19.3466 28.7211 19.2274 28.8174C18.8657 29.1093 18.895 29.3828 18.6337 29.3902C18.5457 29.3926 18.3541 29.3409 18.2641 29.3169C18.0015 29.2468 17.7154 29.1136 17.5042 28.9487C17.4566 28.9115 17.4273 28.8866 17.3661 28.8572C17.4074 28.7431 17.8345 28.5546 17.968 28.5036C18.0884 28.4577 18.2052 28.422 18.3338 28.3849C18.4197 28.3601 18.6408 28.3021 18.7283 28.2988C18.5168 28.4369 18.2582 28.5505 18.0829 28.7355C18.0512 28.7691 17.944 28.8926 17.9273 28.9461L17.9274 28.9462ZM17.333 28.716C17.2543 28.4985 17.5436 28.3496 17.7077 28.2797C17.8781 28.2071 18.1965 28.105 18.3978 28.113C18.3719 28.1299 18.137 28.2 18.0826 28.2212C17.5227 28.4388 17.404 28.6752 17.3328 28.7161L17.333 28.716ZM16.6818 28.3186L16.6866 28.4899C16.7214 28.5789 16.6924 28.6199 16.8219 28.8196C16.9197 28.9704 16.995 29.0288 17.0863 29.1299C17.1092 29.1552 17.1186 29.1674 17.1445 29.191L17.2695 29.2964C17.5592 29.5197 17.8065 29.6567 18.1826 29.7711C18.3962 29.8361 18.7273 29.9125 18.9724 29.8869C19.5879 29.8228 19.7523 29.4908 20.113 29.3938C20.3531 29.3291 20.3209 29.4331 20.3458 28.9343C20.3525 28.8009 20.3554 28.6342 20.3814 28.5097C20.4063 28.3912 20.4681 28.2918 20.5006 28.1729C20.5307 28.0626 20.5299 27.8791 20.4582 27.7913C20.4102 27.8258 20.3886 27.8785 20.2746 27.9456C19.9487 28.1378 19.748 27.8962 19.547 27.7841C19.2403 27.6129 18.9447 27.4885 18.5394 27.4486C18.1418 27.4095 17.6826 27.4738 17.3527 27.6181C17.1628 27.7012 16.9567 27.8207 16.8417 27.9681C16.7885 28.0361 16.7472 28.0972 16.7181 28.1844C16.7048 28.2246 16.6978 28.2887 16.6819 28.3186H16.6818ZM22.0573 33.9681L24.61 33.895C24.5814 33.945 24.2937 34.1961 24.2339 34.2356C24.0335 34.3681 23.9038 34.3533 23.645 34.3605L23.0273 34.378C22.7582 34.3856 22.5554 34.4051 22.3441 34.2114L22.0571 33.9681H22.0573ZM21.4315 33.4323C21.4048 33.3103 21.466 33.2359 21.5105 33.1617C21.6625 32.9084 21.7145 32.6505 21.7897 32.3611C21.839 32.1715 21.9773 32.0777 22.1545 31.996C22.6567 31.764 23.5786 31.7518 24.0973 31.8365C24.2981 31.8692 24.4813 31.9369 24.6214 32.0331C24.7959 32.1529 24.8058 32.2777 24.8774 32.5138C24.9373 32.712 25.006 32.8642 25.1078 33.0125C25.2322 33.1936 25.2762 33.3803 25.1062 33.5245C24.66 33.9024 23.7644 33.7046 23.1963 33.7534C22.9683 33.773 22.3613 33.8265 22.1419 33.8047C22.0384 33.7944 21.9361 33.773 21.8351 33.7533C21.6707 33.7212 21.4712 33.6122 21.4318 33.4324L21.4315 33.4323ZM21.2889 31.895C21.2816 31.6389 21.2864 31.3825 21.2873 31.1264C21.2983 31.1368 21.3017 31.1098 21.3068 31.1943C21.3085 31.222 21.3116 31.2472 21.3142 31.2762C21.319 31.329 21.3253 31.3825 21.3324 31.4337C21.3601 31.6371 21.3985 31.7954 21.4831 31.9807C21.5013 32.0207 21.521 32.0577 21.5429 32.0936C21.5594 32.1208 21.5991 32.173 21.6085 32.1984C21.4975 32.2453 21.4404 32.2128 21.3842 32.1391C21.3342 32.0734 21.2917 31.9953 21.2889 31.895ZM24.9394 30.8664C24.9589 30.8799 24.9469 30.8601 24.9524 30.8908C24.954 30.8992 24.9533 30.9248 24.9537 30.9353L24.9651 31.1958C24.9682 31.3086 24.9958 31.8073 24.9661 31.8786C24.95 31.9175 24.9199 31.9566 24.9001 31.983C24.8743 32.0174 24.8527 32.0577 24.7818 32.0239C24.7168 31.9929 24.784 31.8815 24.8193 31.7759C24.8816 31.5892 24.91 31.389 24.9206 31.1911L24.9296 30.8798C24.9366 30.8625 24.9226 30.8792 24.9394 30.8666V30.8664ZM20.5266 30.0798C20.5735 30.1203 20.6614 30.3028 20.6904 30.3898C20.8001 30.7192 20.7536 30.9383 20.749 31.2627C20.7412 31.8232 20.7072 31.9134 21.0602 32.3594C21.1186 32.4332 21.3675 32.7162 21.3862 32.7498C21.418 32.8071 21.4353 32.8771 21.4283 32.9544C21.3838 32.9376 21.0375 32.5304 20.9873 32.4669C20.8612 32.3069 20.7116 32.1078 20.659 31.8561C20.6296 31.7156 20.5576 30.3498 20.5268 30.0799L20.5266 30.0798ZM20.5126 29.4063C20.5414 29.4925 20.6133 29.5936 20.6681 29.6323C20.916 29.808 21.0707 29.578 21.2862 29.6989C21.3279 29.7223 21.4575 29.8464 21.4732 29.8958C21.4011 29.8677 21.3606 29.8059 21.1908 29.7923C21.0463 29.7808 20.5503 29.9114 20.4813 29.5703C20.4716 29.5223 20.4789 29.4465 20.5127 29.4062L20.5126 29.4063ZM25.5565 29.2557C25.6812 29.328 25.6468 29.6222 25.3361 29.6862C25.2036 29.7135 25.1027 29.6731 24.973 29.6808C24.8372 29.689 24.7652 29.7257 24.6857 29.7975C24.651 29.8287 24.6373 29.8155 24.6618 29.7822C24.6747 29.7647 24.6922 29.7439 24.7064 29.7288C24.7382 29.6949 24.771 29.6565 24.8057 29.6273C24.9199 29.5308 24.9555 29.5459 25.1014 29.5718C25.3674 29.6189 25.5086 29.4786 25.5566 29.2558L25.5565 29.2557ZM20.8079 29.3672C20.783 29.3527 20.7378 29.3099 20.7274 29.2749C20.7502 29.2182 20.8038 29.1696 20.8588 29.224C20.8892 29.2541 20.888 29.2704 20.8613 29.3039C20.8433 29.3266 20.8287 29.3489 20.8079 29.3672ZM25.2901 29.0359C25.311 29.0486 25.3582 29.0949 25.3676 29.1212C25.3805 29.157 25.3337 29.2037 25.3022 29.205C25.2672 29.2065 25.2191 29.1595 25.2216 29.1275C25.2231 29.1075 25.2733 29.0487 25.2901 29.0359ZM22.1235 26.1926C22.1216 26.1946 22.1244 26.1994 22.1091 26.2024C22.0934 26.2056 22.1001 26.2008 22.0953 26.1986C22.1009 26.1782 22.1139 26.1861 22.1235 26.1926Z" fill="#1C1B17"/>
<path fill-rule="evenodd" clip-rule="evenodd" d="M38.2621 18.77L38.3597 18.844L38.4773 18.7603L39.5259 18.4639C39.3973 18.122 39.3422 18.2737 38.93 18.4039C38.6198 18.5019 38.3906 18.4859 38.2621 18.7701V18.77ZM38.9573 25.4901L39.0724 25.2831L38.9602 25.4848L38.9565 25.484C38.9866 25.148 38.9603 25.3739 39.0724 25.283L39.9725 25.3701C40.3912 25.4298 40.1524 25.3449 40.2391 25.5315C40.1334 25.6076 40.3929 25.6573 39.7663 25.5745C39.5895 25.5511 39.4404 25.5472 39.2641 25.5489L38.9862 25.4902C39.2049 25.4907 39.1203 25.4553 39.2641 25.5489L38.9573 25.4899V25.4901ZM9.65094 16.1807L9.58418 16.6651L9.77788 16.5775C10.0333 16.5056 10.0894 16.4202 10.28 16.3156L10.2858 18.1514L10.769 18.1652L10.7678 15.5587C9.95776 15.5163 10.7053 15.6583 9.65094 16.1807ZM39.0703 23.9849L40.3399 23.978L40.3397 23.9616H40.3413L40.3123 23.4113L40.3393 23.9231L40.3335 23.4018L39.058 23.411L39.0703 23.9849ZM22.7234 6.35019L23.2759 6.32876L23.2761 6.33977L23.3065 6.34094L23.3011 7.57679L22.711 7.56918L22.7388 6.43861L22.7235 6.35019H22.7234ZM23.1275 6.3345L22.7416 6.32068L22.7409 6.34949L23.1275 6.3345ZM16.6982 11.4222C16.7029 11.4307 16.7323 11.4437 16.7466 11.5497C16.7897 11.8699 16.6983 12.8106 16.7814 13.2465L17.2619 13.2509V13.2169L16.7882 13.2134L17.2635 13.217L17.2659 10.5969C16.7958 10.5905 16.8968 10.6059 16.6422 10.902C16.4572 11.1172 16.3752 11.1595 16.117 11.2909L16.1347 11.6951L16.6982 11.4223V11.4222ZM5.65727 23.7854L5.64111 23.9195C6.00017 24.013 6.55047 23.9838 6.8669 23.9405L6.85003 23.3559L5.74394 23.3723L5.65727 23.7853V23.7854ZM6.03437 20.0304C6.088 20.2212 5.81397 20.1035 6.57401 20.2717C6.85097 20.3329 7.01984 20.4482 7.19586 20.2956C7.14257 20.1302 7.383 20.2166 6.64392 20.0581C6.41439 20.0088 6.19387 19.9118 6.03437 20.0304ZM6.01493 27.2549C6.13824 27.3527 5.97429 27.3044 6.16073 27.3289C6.20008 27.3341 6.29248 27.3146 6.33721 27.3065C6.42856 27.2899 6.55984 27.253 6.65294 27.2348C7.39038 27.09 7.1469 27.1643 7.18063 26.9898C7.02476 26.8652 6.83048 26.9714 6.58466 27.0248C5.81959 27.1907 6.09878 27.0639 6.01493 27.2549ZM16.3378 8.95962L16.4968 8.92039C16.5484 8.74601 16.4049 8.55255 16.3146 8.34808C16.0356 7.71674 16.215 7.88948 15.9628 7.81628C15.8994 7.92824 15.9039 7.79309 15.9118 7.95529L16.3378 8.95962ZM5.72403 25.4654C5.80788 25.5314 5.72391 25.5788 6.08789 25.5466C6.1756 25.5389 6.28615 25.5176 6.37586 25.5092C6.59649 25.4885 6.767 25.5087 6.92463 25.3992C6.84031 25.1148 6.63315 25.2617 6.29564 25.2961C5.55363 25.3719 5.83868 25.2848 5.72403 25.4655V25.4654ZM6.49906 18.3734C6.67449 18.4886 6.89945 18.5359 7.11341 18.6101C7.37562 18.7012 7.52552 18.8276 7.65551 18.6344C7.53676 18.4482 7.29493 18.4348 7.03577 18.3493C6.75611 18.257 6.53829 18.0749 6.49906 18.3734ZM10.1212 12.0705C10.1112 12.0999 10.0247 12.1334 10.2106 12.3229L10.9675 12.9151C10.9737 12.9063 11.0646 12.7468 11.0848 12.7129C10.466 12.3984 10.4707 12.095 10.2975 12.0335C10.0009 11.9282 10.1841 12.0329 10.1211 12.0705H10.1212ZM19.6744 7.89217C19.7798 7.73442 19.6394 7.17242 19.5805 6.94101C19.4893 6.58289 19.5694 6.77483 19.4093 6.70105C19.2735 6.8821 19.3527 6.97462 19.429 7.3455C19.4487 7.4413 19.4706 7.59647 19.4929 7.68161C19.595 8.06947 19.4768 7.83888 19.6744 7.89217ZM8.98236 13.4629C8.91502 13.6876 8.88703 13.5035 9.37854 13.8912L9.76851 14.1782C9.95694 14.2263 9.84604 14.206 9.95331 14.1417C9.98013 13.9676 10.0256 14.074 9.53921 13.7261L9.15287 13.4429C8.80892 13.3183 9.11563 13.3995 8.98236 13.4629ZM6.01797 21.7456C5.56394 21.7239 5.86772 21.7247 5.73785 21.8201C5.83329 21.9224 5.52073 21.9144 6.00204 21.9857L6.6205 22.0521C6.72332 22.057 6.72028 22.0554 6.81853 22.0394L6.93669 21.9839C6.89653 21.8338 7.0168 21.8851 6.74979 21.8292L6.01809 21.7456H6.01797ZM26.3686 7.92836C26.5401 7.82507 26.4421 8.07767 26.6047 7.32981C26.6572 7.08868 26.7572 6.88608 26.6338 6.72154C26.4545 6.77085 26.5481 6.49014 26.387 7.26774C26.215 8.0991 26.2636 7.78408 26.3686 7.92836ZM7.16248 16.584C7.18461 16.8618 6.96749 16.631 7.37773 16.8201C8.26682 17.2301 8.12184 17.2298 8.2667 17.0479C8.15463 16.8581 7.32678 16.4859 7.16248 16.584ZM13.5537 10.5897C13.5531 10.3737 13.0533 9.70045 12.8718 9.5851C12.6694 9.81147 12.9524 10.0108 13.2474 10.4156C13.4655 10.7151 13.2613 10.6612 13.5537 10.5897ZM24.7779 7.64577C24.8466 7.45336 24.8472 7.28226 24.8688 7.06936C24.8789 6.97028 24.9001 6.86559 24.9093 6.77413C24.9122 6.74649 24.9246 6.59788 24.9213 6.57738C24.8914 6.3927 24.9262 6.53557 24.8442 6.42526C24.659 6.51016 24.7402 6.27559 24.6779 6.69578C24.6647 6.78467 24.6627 6.93691 24.6509 7.04032C24.5664 7.78314 24.526 7.60654 24.7779 7.64589V7.64577ZM38.9821 22.0189C39.1059 22.1087 38.9495 22.0702 39.1566 22.1104L40.0255 22.0317C40.3778 21.9584 40.1309 22.0777 40.2501 21.8864C40.1269 21.7923 40.2824 21.8367 40.0888 21.7988C40.0611 21.7934 39.9242 21.8036 39.89 21.8065C39.7982 21.8145 39.6855 21.8368 39.5843 21.8461C38.8244 21.9155 39.1021 21.8599 38.9821 22.0189ZM36.0129 14.223C36.0987 14.2594 35.9941 14.2889 36.1546 14.2521C36.3083 14.217 36.9729 13.6832 37.0792 13.5898C37.0196 13.5094 37.0241 13.51 36.9554 13.4352L36.1702 13.9915C35.9645 14.13 35.9754 13.9574 36.0129 14.223ZM38.9575 25.4902C38.9677 25.4903 38.9773 25.4904 38.9865 25.4904L38.9575 25.4902ZM18.0111 8.33367C18.1028 8.20251 18.2616 8.63956 17.9425 7.70924C17.9037 7.59647 17.8866 7.52644 17.8502 7.40804C17.718 6.97661 17.8704 7.27746 17.686 7.15262C17.4939 7.30791 17.65 7.52655 17.731 7.7849C17.7855 7.9588 17.8225 8.30955 18.0111 8.33367ZM11.3429 10.8287C11.5041 11.14 11.5836 11.1001 11.9322 11.5353C12.1245 11.7754 11.9695 11.7124 12.234 11.6578C12.2533 11.4399 12.2709 11.5594 12.1278 11.4084C12.0177 11.2922 12.0089 11.2787 11.9148 11.1544C11.7494 10.9357 11.6336 10.8884 11.4748 10.7127L11.3429 10.8287ZM21.3315 7.64331C21.4161 7.54517 21.4315 7.78665 21.4224 7.3756L21.3483 6.69789C21.2941 6.32033 21.36 6.51637 21.199 6.41249C21.0518 6.60315 21.0635 6.04172 21.1567 7.06233C21.1654 7.15789 21.1661 7.28648 21.1792 7.37548C21.2313 7.72974 21.1747 7.56368 21.3315 7.64331ZM37.6794 17.1141C37.8393 17.3046 38.0525 17.1274 38.5975 16.8869C38.9434 16.7342 38.7847 16.835 38.8531 16.6502C38.6192 16.5197 38.425 16.7353 37.9681 16.9091C37.6581 17.027 37.7612 16.9687 37.6793 17.1141H37.6794ZM29.5501 8.96524C29.7921 8.94147 29.655 9.01888 29.9181 8.4639L30.1004 8.04371C30.144 7.88257 30.0891 8.25275 30.1172 7.95025L30.1058 7.86149C29.8646 7.80914 30.0175 7.61157 29.7188 8.33754C29.6096 8.60291 29.4506 8.77318 29.5501 8.96524ZM28.0257 8.37571C28.1547 8.28823 28.0537 8.58616 28.211 8.07755C28.4373 7.34562 28.5722 7.26142 28.2909 7.18799C28.1639 7.37642 28.1284 7.57433 28.0527 7.80211C27.9561 8.09254 27.817 8.2264 28.0257 8.37571ZM38.7248 20.3617C38.8408 20.4318 38.558 20.5002 39.06 20.4076L39.7186 20.2699C40.0858 20.1745 39.8873 20.2658 39.9626 20.0966C39.7901 19.9632 39.702 20.0352 39.3216 20.114C38.478 20.2888 38.8341 20.1518 38.725 20.3617H38.7248ZM33.7555 11.7233C33.7565 11.7235 33.7694 11.9499 34.0552 11.6125C34.3153 11.3056 34.1112 11.4457 34.4958 11.1217C34.535 11.0887 34.6046 11.0437 34.6274 10.9817C34.7047 10.7719 34.5965 10.7561 34.4878 10.7934C34.4187 10.8172 34.3767 10.8607 34.3403 10.8971L33.9318 11.423C33.9019 11.4538 33.7914 11.5408 33.7874 11.5466L33.7486 11.6716C33.7471 11.6816 33.753 11.7061 33.7557 11.7232L33.7555 11.7233ZM34.9004 12.91C35.1872 13.0273 35.0935 12.9103 35.4309 12.6555C35.9202 12.2859 35.7359 12.3474 35.9525 12.1615L35.8373 12.0269C35.6397 12.1327 35.5361 12.2172 35.375 12.3988C34.9819 12.8419 35.0639 12.5049 34.9005 12.9098L34.9004 12.91ZM32.4594 10.6363C32.7465 10.7808 32.4511 10.8452 33.1038 9.99194C33.4344 9.55969 33.2342 9.73664 33.1989 9.66766C32.9776 9.60161 33.194 9.53287 32.7711 10.066C32.504 10.4028 32.3958 10.4731 32.4594 10.6363ZM39.678 27.1317C39.0539 26.9899 38.7617 26.8303 38.7251 27.1223C38.9548 27.2679 39.7414 27.4683 39.9417 27.3212C39.8927 27.1394 40.0215 27.2098 39.6779 27.1317H39.678ZM15.1523 11.3855L15.1584 13.2327L15.6445 13.2277L15.6448 10.6099C15.6326 10.6098 15.431 10.6043 15.429 10.6048C15.2108 10.6522 15.3504 10.5907 15.2632 10.7089C15.0864 10.8207 14.8942 11.1562 14.4799 11.2447L14.4926 11.7226C14.6353 11.6781 14.7198 11.6528 14.8628 11.5728C15.0329 11.4775 14.9661 11.462 15.1523 11.3855ZM7.8656 15.1921L8.09795 15.3772C8.18543 15.4352 8.25066 15.4702 8.34645 15.5227C8.53242 15.6244 8.68291 15.7135 8.87087 15.8045C9.0518 15.5889 9.06176 15.5382 9.15802 15.2869L8.0723 14.8474L7.86549 15.1921H7.8656ZM22.7237 6.35031C22.7294 6.37935 22.7345 6.40898 22.7391 6.43873L22.7237 6.35031ZM30.8121 9.6734L31.3728 9.88818C31.4388 9.54856 31.7571 9.16023 31.9065 8.82928L31.4724 8.55243L30.8121 9.6734ZM14.1105 8.84497C14.3239 9.09254 14.5 9.5577 14.696 9.8096L15.1754 9.57679C15.0626 9.24654 14.8164 8.79028 14.5712 8.52866C14.4365 8.57878 14.4473 8.56637 14.3269 8.64366C14.1855 8.73442 14.1853 8.75526 14.1105 8.84497ZM36.7909 15.3422C36.8582 15.5187 36.8388 15.4859 36.9251 15.6348L37.1062 15.8652C37.4055 15.7438 37.9164 15.465 38.1394 15.2585C38.0449 15.0124 38.0031 14.9396 37.8224 14.8055C37.6136 14.9597 37.0321 15.2924 36.7909 15.3423V15.3422ZM21.2908 9.38168L21.2745 9.81639C21.5482 9.75069 21.7511 9.63394 21.9089 9.49235L21.9057 11.3573L22.4266 11.356L22.326 8.71041C21.894 8.71369 22.0447 8.71802 21.784 9.01829C21.5956 9.23553 21.5858 9.22885 21.2909 9.38157L21.2908 9.38168ZM29.3218 11.7202C29.667 11.6039 29.6986 11.5201 29.9669 11.3875L29.9755 13.2539L30.4121 13.2486C30.5784 12.9615 30.4861 11.2618 30.5005 10.5901C29.844 10.5929 30.1684 10.638 29.7876 10.9865C29.354 11.3834 29.3219 10.9876 29.3219 11.7202H29.3218ZM36.5932 23.2862C36.3165 23.5018 36.3852 23.2137 36.2862 23.6758C36.464 23.8161 36.7236 23.7256 36.8218 23.9653C36.9575 24.2965 36.7027 24.9545 36.1739 24.35C36.0033 24.1551 35.9457 24.2352 35.6303 24.2509C35.7581 24.8912 36.3105 25.233 36.9864 24.8877C37.2023 24.7772 37.3933 24.524 37.3739 24.1445C37.3531 23.7381 37.147 23.712 36.9401 23.5432C37.1391 23.4172 37.2817 23.2762 37.2562 22.9514C37.2175 22.461 36.5669 22.1618 36.0648 22.4294C35.7877 22.5771 35.7298 22.7496 35.6704 23.0454C36.3092 23.1005 36.1131 23.0405 36.1635 22.9922C36.2839 22.877 36.177 22.7765 36.4475 22.7672C36.7215 22.7578 36.8543 23.0827 36.5932 23.2862ZM22.9431 9.51565C22.9542 9.51612 23.2562 9.53076 23.2577 9.53053C23.718 9.46413 23.3763 9.09418 23.8428 9.14582C24.1916 9.18435 24.2063 9.55184 23.9752 9.88267C23.6234 10.3862 23.0403 10.4764 22.8857 11.3677L24.6475 11.3456L24.6514 10.885L23.6896 10.8742C23.8761 10.4967 24.8838 10.0658 24.6097 9.19911C24.4283 8.62562 23.1185 8.32126 22.9431 9.51577V9.51565ZM33.9428 17.6354L33.7252 18.1972L35.5576 18.2059L35.4937 17.7407L34.5451 17.738C34.8223 17.3004 35.7824 16.888 35.4581 15.9899C35.3465 15.6809 34.9721 15.5088 34.5234 15.5676C33.9906 15.6374 33.8632 15.9591 33.8052 16.3574L34.2563 16.374C34.4891 16.0755 34.4546 15.9301 34.9371 16.0369C35.1839 16.9305 34.2802 17.0289 33.9428 17.6354ZM12.1851 15.9514C12.642 16.2018 12.5718 17.7548 12.1813 17.786C11.7245 17.8226 11.6029 16.1556 12.1851 15.9514ZM13.0129 17.0479C13.0129 16.4232 12.9576 15.5614 12.1865 15.5381C10.9831 15.5017 10.9996 18.0404 11.9889 18.2069C12.7121 18.3286 13.0129 17.7041 13.0129 17.048V17.0479ZM9.61405 23.6315C9.05087 23.8382 8.81232 23.2552 9.07862 22.8823C9.37971 22.4607 9.7944 22.9383 9.61405 23.6315ZM8.5795 24.4049C8.67085 25.237 9.70926 25.1704 10.0648 24.5992C10.3368 24.1623 10.3128 22.9986 9.99653 22.6201C9.56064 22.0985 8.58629 22.2924 8.50479 23.078C8.41953 23.9003 9.16505 24.3663 9.71441 23.9203C9.69731 24.2207 9.65422 24.3509 9.55959 24.5535C8.97322 24.6484 9.25077 24.5359 8.93622 24.3047L8.57939 24.405L8.5795 24.4049Z" fill="#727271"/>
<path fill-rule="evenodd" clip-rule="evenodd" d="M22.9883 4.52863C33.4042 4.52863 41.8479 12.9723 41.8479 23.3883C41.8479 24.4428 41.76 25.4768 41.5936 26.4843C41.2949 26.5014 41.0224 26.5907 40.7793 26.7194C40.9803 25.6396 41.0864 24.5264 41.0864 23.3884C41.0864 13.393 32.9836 5.29019 22.9882 5.29019C12.9928 5.29019 4.88997 13.393 4.88997 23.3884C4.88997 24.5386 4.99854 25.6635 5.20371 26.7542C4.90169 26.6021 4.62203 26.5196 4.38172 26.4782C4.21601 25.4727 4.1283 24.4408 4.1283 23.3884C4.1283 12.9724 12.5721 4.52874 22.988 4.52874L22.9883 4.52863Z" fill="#009846"/>
<path fill-rule="evenodd" clip-rule="evenodd" d="M6.20981 30.2675C6.18042 30.0382 6.18042 29.6988 6.27797 29.4256C6.32692 29.2884 6.4014 29.1655 6.51137 29.0824C6.62203 28.9989 6.76596 28.9578 6.949 28.9798C7.31743 29.0239 7.53841 29.3002 7.66513 29.6177C7.79172 29.935 7.82721 30.3007 7.82135 30.5411L7.86925 33.2376L7.87019 33.2943L7.82252 33.2638C7.45304 33.0267 6.6218 32.3837 6.25326 32.0924L6.24201 32.0835L6.24166 32.0691L6.20981 30.2675ZM39.7903 30.2675C39.8197 30.0381 39.8197 29.6988 39.7222 29.4255C39.6732 29.2882 39.5987 29.1653 39.4888 29.0824C39.3781 28.9988 39.2342 28.9578 39.0511 28.9797C38.6827 29.0238 38.4617 29.3001 38.335 29.6176C38.2084 29.9349 38.1728 30.3005 38.1787 30.5408L38.1308 33.2374L38.1298 33.2941L38.1775 33.2635C38.547 33.0265 39.3782 32.3834 39.7469 32.0922L39.758 32.0833L39.7583 32.0689L39.7903 30.2675ZM37.8832 31.8108C37.9018 31.6268 37.901 31.2579 37.7904 30.9545C37.735 30.8025 37.6511 30.6642 37.5254 30.5747C37.3988 30.4845 37.2334 30.4468 37.021 30.4901C36.6799 30.5596 36.4798 30.7925 36.3687 31.0514C36.2584 31.309 36.2348 31.5948 36.2467 31.7804L36.2015 34.3248L36.2007 34.3728L36.2444 34.353C36.7594 34.1189 37.522 33.6871 37.8387 33.5007L37.8538 33.4918L37.8537 33.4743C37.8513 33.0389 37.854 32.0992 37.8832 31.8108ZM44.5068 26.7677C44.67 26.669 44.7944 26.631 44.8878 26.6308C44.9797 26.6306 45.0436 26.667 45.0888 26.7233C45.1351 26.7808 45.1627 26.8609 45.1763 26.9485C45.1898 27.0354 45.1889 27.1271 45.1803 27.2056C44.8683 29.4557 43.0756 35.5915 36.3424 39.4369C33.651 40.9307 28.2755 42.4188 23 40.7053C17.7245 42.4188 12.349 40.9308 9.65762 39.4369C2.92443 35.5915 1.13183 29.4557 0.819737 27.2057C0.811071 27.1272 0.810251 27.0355 0.823719 26.9486C0.837303 26.8612 0.865058 26.7811 0.911199 26.7234C0.956404 26.6671 1.02035 26.6308 1.11216 26.6309C1.20561 26.6312 1.32998 26.6691 1.49323 26.7678C2.31112 27.2627 2.81048 28.2446 3.37986 29.5397C3.52414 29.8678 3.87652 30.3422 4.37927 30.8897C4.88261 31.438 5.53889 32.062 6.29366 32.6898C7.80296 33.945 9.70786 35.2169 11.5739 35.9282C12.0408 36.1061 12.4076 36.1937 12.6912 36.2078C12.9749 36.2218 13.1786 36.1623 13.3148 36.0425C13.4513 35.9225 13.5147 35.7465 13.528 35.5391C13.5411 35.3318 13.5043 35.09 13.4369 34.8329C13.3019 34.3188 13.0422 33.7366 12.8012 33.2354C12.7262 33.0794 12.6527 32.9308 12.5854 32.7945L12.5845 32.7929C12.544 32.7108 12.5057 32.6331 12.4705 32.5611C12.3762 32.3679 12.3053 32.2153 12.2741 32.1197C12.148 31.7344 12.1293 31.1345 12.2845 30.5644C12.4397 29.9945 12.7669 29.4598 13.3272 29.197C13.6069 29.0659 13.7908 29.0885 13.9188 29.1912C14.0506 29.2969 14.132 29.4939 14.1892 29.7328C14.2332 29.917 14.2618 30.1209 14.2895 30.319C14.2976 30.3768 14.3057 30.4339 14.314 30.49C14.3504 30.7358 14.3927 30.9628 14.4743 31.1038C14.5235 31.1888 14.5738 31.3022 14.6359 31.4427C14.6714 31.5228 14.7109 31.6117 14.7562 31.7092C14.8802 31.9761 15.0469 32.3023 15.2953 32.6748C15.7919 33.4197 16.6145 34.3477 18.0753 35.3545C18.3846 35.5678 18.6908 35.7721 18.9943 35.9751C20.1236 36.7296 21.2165 37.4598 22.2997 38.5199C22.5334 38.7541 22.7668 39.0028 23.0004 39.2696C23.2338 39.0028 23.4673 38.7541 23.701 38.5197C24.7842 37.4598 25.8771 36.7295 27.0064 35.975C27.3099 35.7721 27.6161 35.5676 27.9254 35.3544C29.3861 34.3476 30.2087 33.4196 30.7053 32.6747C30.9537 32.3023 31.1202 31.976 31.2444 31.7091C31.2897 31.6116 31.3291 31.5227 31.3645 31.4426C31.4267 31.3022 31.4771 31.1888 31.5263 31.1037C31.6079 30.9627 31.6503 30.7356 31.6866 30.4899C31.6949 30.4338 31.7029 30.3765 31.7111 30.3188C31.7388 30.1207 31.7674 29.9168 31.8114 29.7326C31.8686 29.4937 31.95 29.2968 32.0818 29.191C32.2097 29.0883 32.3936 29.0657 32.6733 29.1969C33.2337 29.4597 33.5609 29.9944 33.7161 30.5643C33.8713 31.1344 33.8526 31.7342 33.7265 32.1196C33.6952 32.2152 33.6244 32.3678 33.5301 32.561C33.495 32.633 33.4567 32.7106 33.4161 32.7927L33.4154 32.7941C33.348 32.9305 33.2744 33.0793 33.1994 33.2353C32.9584 33.7365 32.6986 34.3187 32.5637 34.8328C32.4963 35.0898 32.4595 35.3317 32.4726 35.539C32.4859 35.7465 32.5493 35.9224 32.6856 36.0424C32.822 36.1623 33.0257 36.2217 33.3094 36.2076C33.593 36.1937 33.9598 36.1061 34.4266 35.9281C36.2926 35.2168 38.1975 33.9449 39.7068 32.6897C40.4616 32.062 41.1177 31.4379 41.6212 30.8896C42.1238 30.3421 42.4762 29.8677 42.6205 29.5396C43.1899 28.2445 43.6889 27.2626 44.5068 26.7677ZM8.11693 31.8108C8.09831 31.6269 8.09925 31.2579 8.20968 30.9545C8.26508 30.8025 8.34893 30.6642 8.47459 30.5747C8.60118 30.4845 8.76666 30.4468 8.97898 30.49C9.32011 30.5595 9.52025 30.7925 9.63127 31.0513C9.74159 31.3088 9.76525 31.5946 9.7533 31.7803L9.79851 34.3248L9.79944 34.3728L9.75576 34.353C9.24072 34.1189 8.4781 33.6871 8.16144 33.5005L8.14633 33.4918L8.14645 33.4743C8.14879 33.0389 8.14621 32.0992 8.11693 31.8108ZM4.0372 27.8821C3.91892 28.2463 3.91365 28.7143 3.94468 29.0339L3.95698 29.7297L3.95721 29.7405L3.96424 29.7487C4.36639 30.2261 5.29636 31.2851 5.79114 31.6907L5.84185 31.7323L5.84068 31.6667L5.79325 29.0012C5.80953 28.7699 5.78154 28.4116 5.64452 28.0841C5.50692 27.7554 5.25806 27.4554 4.83202 27.3507C4.61712 27.2979 4.44685 27.3371 4.31533 27.439C4.18522 27.5399 4.09657 27.6998 4.0372 27.8821ZM41.9629 27.8821C42.0812 28.2463 42.0865 28.7143 42.0554 29.0339L42.043 29.7297L42.0429 29.7405L42.0359 29.7487C41.6337 30.2261 40.7038 31.2851 40.2089 31.6907L40.1582 31.7323L40.1593 31.6667L40.2066 29.0012C40.1904 28.7699 40.2184 28.4116 40.3554 28.0841C40.4929 27.7554 40.7418 27.4554 41.1679 27.3506C41.3828 27.2977 41.553 27.337 41.6846 27.439C41.8147 27.5399 41.9036 27.6997 41.9629 27.8821Z" fill="#EF7F1A"/>
<path d="M15.9472 21.8564C15.5932 21.8564 15.2881 21.7994 15.0318 21.6855C14.7795 21.5675 14.5476 21.3905 14.336 21.1546L14.9585 20.5382C15.0969 20.6968 15.2494 20.8209 15.4163 20.9104C15.5871 20.9959 15.7845 21.0386 16.0083 21.0386C16.2117 21.0386 16.3683 21.002 16.4782 20.9287C16.5921 20.8555 16.6491 20.7538 16.6491 20.6236C16.6491 20.5056 16.6125 20.41 16.5392 20.3368C16.466 20.2635 16.3683 20.2005 16.2463 20.1476C16.1283 20.0947 15.996 20.0438 15.8496 19.995C15.7072 19.9462 15.5648 19.8912 15.4224 19.8302C15.28 19.7651 15.1477 19.6858 15.0257 19.5922C14.9077 19.4945 14.8121 19.3745 14.7388 19.2321C14.6656 19.0856 14.629 18.9025 14.629 18.6828C14.629 18.4184 14.692 18.1905 14.8182 17.9993C14.9484 17.8081 15.1274 17.6636 15.3552 17.566C15.5831 17.4643 15.8455 17.4134 16.1425 17.4134C16.4436 17.4134 16.7182 17.4663 16.9664 17.5721C17.2187 17.6779 17.4262 17.8223 17.5889 18.0054L16.9664 18.6218C16.8362 18.4875 16.704 18.3879 16.5697 18.3228C16.4395 18.2577 16.291 18.2251 16.1242 18.2251C15.9574 18.2251 15.8252 18.2577 15.7275 18.3228C15.6299 18.3838 15.581 18.4733 15.581 18.5913C15.581 18.7011 15.6177 18.7907 15.6909 18.8598C15.7641 18.9249 15.8597 18.9819 15.9777 19.0307C16.0998 19.0795 16.232 19.1284 16.3744 19.1772C16.5209 19.226 16.6653 19.283 16.8078 19.3481C16.9502 19.4132 17.0804 19.4966 17.1983 19.5983C17.3204 19.6959 17.4181 19.8221 17.4913 19.9767C17.5645 20.1272 17.6011 20.3144 17.6011 20.5382C17.6011 20.9491 17.4547 21.2726 17.1617 21.5085C16.8688 21.7405 16.4639 21.8564 15.9472 21.8564ZM19.1064 21.7893V17.5416H20.0646V21.7893H19.1064ZM17.7576 18.3166V17.4805H21.4133V18.3166H17.7576ZM23.0158 21.8564C22.6618 21.8564 22.3566 21.7994 22.1003 21.6855C21.8481 21.5675 21.6161 21.3905 21.4046 21.1546L22.0271 20.5382C22.1654 20.6968 22.318 20.8209 22.4848 20.9104C22.6557 20.9959 22.853 21.0386 23.0768 21.0386C23.2802 21.0386 23.4369 21.002 23.5467 20.9287C23.6607 20.8555 23.7176 20.7538 23.7176 20.6236C23.7176 20.5056 23.681 20.41 23.6078 20.3368C23.5345 20.2635 23.4369 20.2005 23.3148 20.1476C23.1968 20.0947 23.0646 20.0438 22.9181 19.995C22.7757 19.9462 22.6333 19.8912 22.4909 19.8302C22.3485 19.7651 22.2163 19.6858 22.0942 19.5922C21.9762 19.4945 21.8806 19.3745 21.8074 19.2321C21.7341 19.0856 21.6975 18.9025 21.6975 18.6828C21.6975 18.4184 21.7606 18.1905 21.8867 17.9993C22.0169 17.8081 22.1959 17.6636 22.4238 17.566C22.6516 17.4643 22.9141 17.4134 23.2111 17.4134C23.5122 17.4134 23.7868 17.4663 24.035 17.5721C24.2872 17.6779 24.4947 17.8223 24.6575 18.0054L24.035 18.6218C23.9048 18.4875 23.7726 18.3879 23.6383 18.3228C23.5081 18.2577 23.3596 18.2251 23.1928 18.2251C23.0259 18.2251 22.8937 18.2577 22.7961 18.3228C22.6984 18.3838 22.6496 18.4733 22.6496 18.5913C22.6496 18.7011 22.6862 18.7907 22.7594 18.8598C22.8327 18.9249 22.9283 18.9819 23.0463 19.0307C23.1684 19.0795 23.3006 19.1284 23.443 19.1772C23.5895 19.226 23.7339 19.283 23.8763 19.3481C24.0187 19.4132 24.1489 19.4966 24.2669 19.5983C24.389 19.6959 24.4866 19.8221 24.5598 19.9767C24.6331 20.1272 24.6697 20.3144 24.6697 20.5382C24.6697 20.9491 24.5232 21.2726 24.2303 21.5085C23.9373 21.7405 23.5325 21.8564 23.0158 21.8564ZM25.2801 21.7893V17.4805H25.9636L27.6602 20.1231H27.3124L29.0029 17.4805H29.6925V21.7893H28.7344V19.0978L28.9053 19.1406L27.8006 20.8616H27.1659L26.0673 19.1406L26.2321 19.0978V21.7893H25.2801Z" fill="#2B2A29"/>
</g>
<defs>
<clipPath id="clip0_1_661">
<rect width="45" height="45" fill="white" transform="translate(0.5 0.5)"/>
</clipPath>
</defs>
</svg>
