<svg width="25" height="25" viewBox="0 0 25 25" fill="none" xmlns="http://www.w3.org/2000/svg">
<g clip-path="url(#clip0_1317_3183)">
<path fill-rule="evenodd" clip-rule="evenodd" d="M9.243 5.663C9.412 7.086 9.181 8.57 8.667 9.902C8.098 11.376 7.342 12.972 7.248 14.559C7.169 15.896 7.472 17.478 8.28 18.561C9.165 19.747 10.618 20.5 12.217 20.5H13.729C14.9833 20.5001 16.1918 20.0287 17.1148 19.1794C18.0378 18.3301 18.6079 17.165 18.712 15.915L19.073 11.583C19.0845 11.4451 19.0672 11.3064 19.0223 11.1755C18.9774 11.0446 18.9059 10.9245 18.8122 10.8227C18.7185 10.7209 18.6046 10.6397 18.4779 10.5841C18.3512 10.5286 18.2144 10.4999 18.076 10.5H12.75C12.3536 10.4995 11.9735 10.3424 11.6924 10.063C11.4113 9.78354 11.2519 9.40437 11.249 9.008C11.241 8.038 11.302 6.841 10.856 5.948C10.456 5.148 10.082 5 9.75 5C9.45 5 9.21 5.393 9.243 5.663ZM9.75 3C11.106 3 12.044 3.852 12.645 5.053C13.167 6.098 13.216 7.353 13.242 8.5H18.076C18.4911 8.49994 18.9016 8.58601 19.2817 8.75278C19.6618 8.91954 20.0032 9.16336 20.2842 9.46883C20.5653 9.7743 20.7798 10.1348 20.9144 10.5274C21.049 10.9201 21.1006 11.3364 21.066 11.75L20.705 16.081C20.5593 17.8309 19.7612 19.4621 18.469 20.6511C17.1768 21.8401 15.485 22.5 13.729 22.5H12.217C11.2684 22.5027 10.3293 22.3108 9.45775 21.9362C8.58622 21.5616 7.80079 21.0122 7.15 20.322C6.69283 20.4408 6.22235 20.5006 5.75 20.5C4.642 20.5 3.722 19.88 3.126 18.892C2.546 17.932 2.25 16.607 2.25 15C2.25 13.394 2.547 12.069 3.126 11.109C3.722 10.12 4.642 9.5 5.75 9.5C6.031 9.5 6.329 9.55 6.627 9.634C7.085 8.434 7.411 7.197 7.257 5.899C7.085 4.454 8.266 3 9.75 3ZM5.946 11.524C5.461 11.424 5.081 11.74 4.839 12.142C4.513 12.682 4.25 13.606 4.25 15C4.25 16.394 4.513 17.319 4.838 17.859C5.148 18.371 5.478 18.5 5.75 18.5C5.814 18.5 5.877 18.498 5.94 18.495C5.404 17.287 5.174 15.755 5.252 14.441C5.299 13.636 5.613 12.523 5.946 11.524Z" fill="white"/>
</g>
<defs>
<clipPath id="clip0_1317_3183">
<rect width="24" height="24" fill="white" transform="translate(0.25 0.5)"/>
</clipPath>
</defs>
</svg>
