<svg width="25" height="24" viewBox="0 0 25 24" fill="none" xmlns="http://www.w3.org/2000/svg">
<path d="M17.35 10.88L15.93 9.46002L11.69 13.71L9.56999 11.58L8.14999 13L11.69 16.54L17.35 10.88Z" fill="white"/>
<path d="M19.75 4H5.75C5.21957 4 4.71086 4.21071 4.33579 4.58579C3.96071 4.96086 3.75 5.46957 3.75 6V18C3.75 18.5304 3.96071 19.0391 4.33579 19.4142C4.71086 19.7893 5.21957 20 5.75 20H19.75C20.85 20 21.75 19.1 21.75 18V6C21.75 5.46957 21.5393 4.96086 21.1642 4.58579C20.7891 4.21071 20.2804 4 19.75 4ZM19.75 18H5.75V8H19.75V18Z" fill="white"/>
</svg>
